<svg width="83" height="83" viewBox="0 0 83 83" fill="none" xmlns="http://www.w3.org/2000/svg">
<g clip-path="url(#clip0_3248_4915)">
<path d="M37.1261 69.3506L42.2366 56.567L42.8518 56.233L37.7413 69.0166L37.1261 69.3506ZM38.9717 68.3485L44.0822 55.5649L46.543 54.2288L41.4325 67.0124L38.9717 68.3485ZM42.0477 66.6784L47.1582 53.8948L47.7734 53.5608L42.6629 66.3444L42.0477 66.6784ZM39.3616 73.2769C38.9238 73.7295 38.4998 74.0672 38.0897 74.2898C37.7069 74.4977 37.4826 74.5234 37.4167 74.3669C37.3566 74.1959 37.4363 73.836 37.6557 73.2871C37.6961 73.186 37.7665 73.0234 37.8668 72.7993L38.4338 71.5414L37.6546 71.9645L37.8452 71.4878L38.6449 71.0536L39.0962 70.0452L39.7342 69.614L39.8162 69.5694L39.7989 69.6128C39.7542 69.6709 39.7164 69.7254 39.6854 69.7762C39.6408 69.8343 39.604 69.8996 39.5751 69.9718L39.1986 70.753L40.347 70.1295L40.1564 70.6062L38.967 71.2519L38.4031 72.542C38.3028 72.7661 38.2411 72.9071 38.218 72.9648C38.0448 73.3982 37.9743 73.6683 38.0064 73.7753C38.0444 73.8677 38.1659 73.8583 38.371 73.747C38.5213 73.6653 38.6764 73.5585 38.8362 73.4265C38.9824 73.3019 39.1635 73.1301 39.3795 72.911L39.3616 73.2769ZM43.8949 65.6755L49.0054 52.8919L49.6206 52.5578L44.5101 65.3414L43.8949 65.6755ZM45.7405 64.6734L50.851 51.8898L51.4662 51.5558L46.3557 64.3394L45.7405 64.6734ZM47.5861 63.6713L52.6966 50.8877L55.1574 49.5516L50.0469 62.3352L47.5861 63.6713ZM46.6787 66.6237C47.0478 66.4233 47.3006 66.3935 47.437 66.5344L47.0176 67.1013L46.9625 67.1991L46.9183 67.1892C46.9277 67.1389 46.9314 67.1029 46.9292 67.0815C46.9192 67.053 46.8887 67.0356 46.8377 67.0294C46.7493 67.0095 46.6162 67.0479 46.4385 67.1444C46.2608 67.2409 46.0697 67.3842 45.8652 67.5744C45.6665 67.7501 45.4789 67.9651 45.3023 68.2193C45.1121 68.4809 44.9593 68.7561 44.8438 69.045L44.0642 70.9951L43.5105 71.2957L44.983 67.6123L45.5572 67.3005L45.2682 67.9833C45.4563 67.7003 45.6817 67.4308 45.9446 67.175C46.2016 66.9337 46.4463 66.7499 46.6787 66.6237ZM50.6637 62.0003L55.7742 49.2167L56.3894 48.8827L51.2789 61.6663L50.6637 62.0003ZM52.5093 60.9982L57.6197 48.2146L58.2349 47.8806L53.1245 60.6642L52.5093 60.9982ZM53.7397 60.3302L58.8501 47.5466L60.0805 46.8785L54.9701 59.6621L53.7397 60.3302ZM52.7503 63.3272C53.2424 63.0599 53.5635 62.993 53.7136 63.1265C53.8636 63.2599 53.8058 63.6588 53.5402 64.3233L52.7606 66.2733L52.1659 66.5962L52.3911 66.0329C52.0128 66.5775 51.5297 67.0095 50.9419 67.3287C50.5591 67.5365 50.2959 67.6059 50.1522 67.5369C50.0085 67.4679 49.9973 67.2817 50.1186 66.9783C50.2225 66.7183 50.3941 66.4499 50.6332 66.1731C50.8586 65.9036 51.1312 65.6369 51.4508 65.3729C51.751 65.1307 52.0651 64.9206 52.3932 64.7425C52.6803 64.5866 52.9343 64.46 53.1551 64.3627C53.2895 63.9731 53.3024 63.7399 53.194 63.663C53.0856 63.5862 52.8605 63.6405 52.5187 63.8261C52.341 63.9226 52.1625 64.0478 51.9832 64.2017C51.7903 64.363 51.5995 64.5457 51.4108 64.75L51.2915 64.5264C51.7582 64.0015 52.2445 63.6018 52.7503 63.3272ZM51.1766 66.8619C51.5594 66.6541 51.9093 66.368 52.2262 66.0037C52.5373 65.6538 52.7863 65.2585 52.9732 64.8177C52.7582 64.9005 52.5207 65.0125 52.261 65.1535C51.8782 65.3614 51.5417 65.6006 51.2516 65.8712C50.9809 66.12 50.7907 66.3816 50.6809 66.6561C50.5193 67.0605 50.6845 67.1291 51.1766 66.8619ZM57.4325 58.3252L62.5429 45.5416L63.1581 45.2075L58.0476 57.9911L57.4325 58.3252ZM60.5084 56.655L65.6189 43.8714L66.2341 43.5374L61.1236 56.321L60.5084 56.655ZM61.7388 55.987L66.8493 43.2034L68.0797 42.5353L62.9692 55.3189L61.7388 55.987ZM58.2849 63.3417C57.9431 63.5273 57.6741 63.6112 57.4778 63.5933C57.2874 63.561 57.1747 63.4412 57.1398 63.234C57.1049 63.0267 57.1626 62.7353 57.3127 62.3598C57.4571 61.9987 57.6622 61.6328 57.9281 61.2623C58.1939 60.8917 58.4914 60.5493 58.8204 60.2349C59.1437 59.935 59.4762 59.6922 59.818 59.5067C60.0914 59.3582 60.3212 59.2787 60.5074 59.268C60.68 59.2648 60.7981 59.3307 60.8619 59.4658L60.366 60.0234L60.3077 60.089L60.284 60.0679C60.3013 60.0246 60.305 59.9887 60.295 59.9602C60.2928 59.9387 60.276 59.9139 60.2444 59.8859C60.1755 59.8441 60.0881 59.835 59.9824 59.8585C59.8688 59.8749 59.73 59.9277 59.5659 60.0168C59.3609 60.1281 59.1532 60.2861 58.9429 60.4907C58.719 60.7028 58.5159 60.9431 58.3336 61.2117C58.1434 61.4733 57.9934 61.7414 57.8837 62.0158C57.774 62.2903 57.7276 62.5134 57.7446 62.6851C57.7673 62.8424 57.8445 62.9306 57.976 62.9496C58.1154 62.9757 58.2945 62.9294 58.5132 62.8106C58.8687 62.6176 59.2369 62.2989 59.6179 61.8546L59.7696 62.0776C59.2719 62.6531 58.777 63.0745 58.2849 63.3417ZM64.2012 54.65L69.3117 41.8664L69.9269 41.5324L64.8164 54.316L64.2012 54.65ZM66.0468 53.6479L71.1573 40.8644L73.6181 39.5283L68.5076 52.3118L66.0468 53.6479ZM69.1228 51.9778L74.2333 39.1942L74.8485 38.8602L69.738 51.6438L69.1228 51.9778ZM66.4368 58.5763C65.9989 59.0289 65.575 59.3666 65.1648 59.5893C64.782 59.7971 64.5577 59.8228 64.4918 59.6663C64.4317 59.4954 64.5114 59.1354 64.7308 58.5865C64.7712 58.4854 64.8416 58.3228 64.9419 58.0987L65.509 56.8408L64.7297 57.2639L64.9203 56.7873L65.72 56.353L66.1713 55.3446L66.8093 54.9134L66.8913 54.8688L66.874 54.9122C66.8294 54.9704 66.7915 55.0248 66.7605 55.0756C66.7159 55.1338 66.6791 55.199 66.6502 55.2712L66.2737 56.0524L67.4221 55.4289L67.2315 55.9056L66.0421 56.5513L65.4782 57.8414C65.3779 58.0655 65.3162 58.2065 65.2931 58.2643C65.1199 58.6976 65.0494 58.9677 65.0815 59.0747C65.1195 59.1672 65.241 59.1577 65.4461 59.0464C65.5965 58.9647 65.7516 58.8579 65.9114 58.7259C66.0575 58.6013 66.2386 58.4295 66.4546 58.2104L66.4368 58.5763ZM70.97 50.9749L76.0805 38.1913L76.6957 37.8573L71.5852 50.6408L70.97 50.9749ZM73.4308 49.6388L78.5413 36.8552L81.0021 35.5191L75.8916 48.3027L73.4308 49.6388ZM76.5068 47.9686L81.6173 35.1851L82.2325 34.851L77.122 47.6346L76.5068 47.9686ZM71.5645 56.1145C71.2501 56.2853 71.0016 56.358 70.819 56.3327C70.6501 56.3 70.5551 56.1763 70.5338 55.9616C70.4989 55.7544 70.5566 55.463 70.7067 55.0874C70.8568 54.7119 71.0649 54.3388 71.3307 53.9683C71.5829 53.6051 71.857 53.281 72.1529 52.996C72.4683 52.689 72.7832 52.4502 73.0976 52.2795C73.4121 52.1087 73.6508 52.0469 73.814 52.0941C73.9965 52.1194 74.0984 52.2393 74.1196 52.454C74.1408 52.6687 74.0764 52.9638 73.9262 53.3394C73.7761 53.7149 73.5749 54.0843 73.3227 54.4474C73.0705 54.8105 72.7896 55.1383 72.48 55.4308C72.1841 55.7159 71.8789 55.9438 71.5645 56.1145ZM71.755 55.6379C71.9464 55.5339 72.1502 55.3724 72.3662 55.1534C72.5628 54.9562 72.7522 54.7232 72.9345 54.4546C73.1089 54.179 73.251 53.9039 73.3607 53.6295C73.5282 53.2106 73.5682 52.9231 73.4807 52.767C73.3933 52.6109 73.1992 52.6145 72.8984 52.7778C72.5976 52.9411 72.2996 53.2047 72.0043 53.5686C71.7089 53.9326 71.4775 54.324 71.3101 54.7429C71.2003 55.0173 71.1403 55.2478 71.1299 55.4344C71.139 55.5991 71.1956 55.6984 71.2998 55.7323C71.3982 55.7807 71.55 55.7492 71.755 55.6379Z" fill="white"/>
<g clip-path="url(#clip1_3248_4915)">
<path d="M2.94834 37.0427L8.11852 24.2831L8.62337 24.768L3.45319 37.5276L2.94834 37.0427ZM4.46288 38.4975L9.63307 25.7379L10.1379 26.2229L4.96773 38.9824L4.46288 38.4975ZM6.98713 40.9222L12.1573 28.1626L13.167 29.1325L7.99682 41.8921L6.98713 40.9222ZM2.99552 46.7921C2.82723 46.6305 2.69062 46.4292 2.58567 46.1881C2.48072 45.9471 2.41281 45.6916 2.38194 45.4216L2.02087 45.7358L1.73479 45.461L3.89926 40.1192L4.42094 40.6203L4.40341 40.6636C4.36345 40.6853 4.33201 40.7052 4.30911 40.7232C4.28037 40.7557 4.24847 40.8152 4.21341 40.9017L3.45103 42.7832C3.63379 42.6783 3.82707 42.6437 4.03087 42.6792C4.23467 42.7147 4.4151 42.8079 4.57216 42.9588C4.93117 43.3037 5.15299 43.7371 5.23762 44.259C5.31641 44.7954 5.23313 45.3663 4.98776 45.9718C4.81834 46.39 4.6162 46.6965 4.38133 46.8915C4.14646 47.0865 3.90445 47.1645 3.65531 47.1255C3.41739 47.0972 3.19746 46.9861 2.99552 46.7921ZM3.15535 46.2246C3.37972 46.4401 3.61157 46.5026 3.85089 46.412C4.08436 46.3359 4.30042 46.0527 4.49904 45.5625C4.69183 45.0867 4.76765 44.6688 4.72649 44.3088C4.67996 43.9236 4.5389 43.6179 4.3033 43.3916C4.06771 43.1653 3.82149 43.119 3.56464 43.2529C3.31364 43.3723 3.10051 43.6483 2.92525 44.0808C2.55136 45.0035 2.62806 45.7181 3.15535 46.2246ZM8.50299 42.3783L13.6732 29.6187L14.178 30.1037L9.00784 42.8632L8.50299 42.3783ZM9.51268 43.3482L14.6829 30.5886L15.6926 31.5585L10.5224 44.3181L9.51268 43.3482ZM11.5321 45.2879L16.7023 32.5284L17.2071 33.0133L12.0369 45.7729L11.5321 45.2879ZM8.58382 52.1601C8.15751 51.7506 7.88812 51.2615 7.77568 50.6928C7.65201 50.1133 7.71286 49.5208 7.95822 48.9153C8.1218 48.5116 8.32663 48.2177 8.57272 48.0334C8.80175 47.8528 9.04644 47.7874 9.3068 47.8372C9.56179 47.8619 9.81269 47.9927 10.0595 48.2298C10.4073 48.5639 10.6293 48.9774 10.7257 49.4705C10.8161 49.9781 10.7445 50.5202 10.5108 51.0969C10.4875 51.1546 10.4524 51.2411 10.4057 51.3564L8.36947 49.4005C8.19958 49.8582 8.15766 50.2886 8.24369 50.6917C8.32972 51.0948 8.51297 51.4311 8.79344 51.7005C9.09635 51.9915 9.39866 52.0916 9.70038 52.0008L9.82136 52.5677C9.42265 52.7055 9.01014 52.5696 8.58382 52.1601ZM10.1354 50.4658C10.2756 50.1198 10.3192 49.7812 10.2664 49.45C10.2136 49.1189 10.075 48.8455 9.85058 48.63C9.64864 48.436 9.43117 48.3573 9.19816 48.3939C8.96515 48.4304 8.75587 48.62 8.57032 48.9625L10.1354 50.4658ZM14.0576 47.7139L19.2278 34.9544L20.2375 35.9242L15.0673 48.6838L14.0576 47.7139ZM15.5722 49.1687L20.7424 36.4092L21.7521 37.3791L16.5819 50.1386L15.5722 49.1687ZM17.5916 51.1085L22.7618 38.349L23.7715 39.3188L18.6013 52.0784L17.5916 51.1085ZM19.6123 53.0495L24.7825 40.29L25.2873 40.7749L20.1171 53.5345L19.6123 53.0495ZM21.1268 54.5044L26.297 41.7448L26.8019 42.2298L21.6317 54.9893L21.1268 54.5044ZM22.1365 55.4743L27.3067 42.7147L28.3164 43.6846L23.1462 56.4441L22.1365 55.4743ZM21.0847 58.8202C21.4885 59.2082 21.7416 59.6415 21.8437 60.1202C21.9459 60.5989 21.8626 61.1698 21.5939 61.833L20.8052 63.7794L20.3172 63.3106L20.545 62.7483C20.2015 63.0192 19.7885 62.923 19.3061 62.4596C18.9919 62.1578 18.7831 61.827 18.6795 61.4672C18.576 61.1073 18.5856 60.776 18.7082 60.4732C18.8134 60.2137 18.9713 60.0549 19.1818 59.9968C19.3812 59.9279 19.6164 59.9436 19.8875 60.0438C20.1416 60.1476 20.4032 60.3288 20.6725 60.5875C20.9081 60.8138 21.1154 61.0329 21.2944 61.245C21.4356 60.8197 21.4683 60.4505 21.3925 60.1374C21.3168 59.8243 21.1387 59.5331 20.8582 59.2637C20.7124 59.1236 20.5631 59.0303 20.4105 58.9838C20.2467 58.9266 20.0824 58.909 19.9176 58.931L19.8478 58.3532C20.2573 58.2658 20.6696 58.4215 21.0847 58.8202ZM19.5318 62.0755C19.8459 62.3773 20.1424 62.4918 20.4212 62.4191C20.6942 62.3609 20.9239 62.1209 21.1104 61.6991C20.9372 61.4727 20.744 61.2571 20.5309 61.0523C20.2168 60.7506 19.9351 60.5802 19.686 60.5412C19.4539 60.4985 19.2824 60.6141 19.1714 60.8881C19.0078 61.2918 19.1279 61.6876 19.5318 62.0755ZM25.1669 58.3852L30.3371 45.6256L30.842 46.1106L25.6718 58.8701L25.1669 58.3852ZM26.6815 59.84L31.8517 47.0804L32.3565 47.5654L27.1863 60.3249L26.6815 59.84ZM29.2057 62.2647L34.3759 49.5052L35.3856 50.475L30.2154 63.2346L29.2057 62.2647ZM25.2141 68.1347C25.0458 67.973 24.9092 67.7717 24.8043 67.5307C24.6993 67.2896 24.6314 67.0341 24.6005 66.7641L24.2395 67.0783L23.9534 66.8035L26.1179 61.4618L26.6395 61.9629L26.622 62.0061C26.582 62.0278 26.5506 62.0477 26.5277 62.0658C26.499 62.0982 26.4671 62.1577 26.432 62.2442L25.6696 64.1257C25.8524 64.0209 26.0457 63.9862 26.2495 64.0217C26.4533 64.0573 26.6337 64.1505 26.7908 64.3013C27.1498 64.6462 27.3716 65.0796 27.4562 65.6015C27.535 66.1379 27.4517 66.7088 27.2064 67.3144C27.0369 67.7325 26.8348 68.039 26.5999 68.234C26.3651 68.429 26.123 68.507 25.8739 68.468C25.636 68.4397 25.4161 68.3286 25.2141 68.1347ZM25.3739 67.5671C25.5983 67.7827 25.8302 67.8451 26.0695 67.7545C26.303 67.6784 26.519 67.3952 26.7176 66.905C26.9104 66.4292 26.9862 66.0113 26.9451 65.6513C26.8986 65.2661 26.7575 64.9604 26.5219 64.7341C26.2863 64.5078 26.0401 64.4615 25.7832 64.5954C25.5322 64.7148 25.3191 64.9908 25.1438 65.4233C24.77 66.346 24.8467 67.0606 25.3739 67.5671ZM30.7216 63.7208L35.8918 50.9612L36.3966 51.4462L31.2264 64.2057L30.7216 63.7208ZM31.7313 64.6907L36.9015 51.9311L38.9209 53.8709L33.7507 66.6305L31.7313 64.6907ZM34.7604 67.6003L39.9306 54.8408L40.4354 55.3257L35.2652 68.0853L34.7604 67.6003ZM30.6678 73.3733C30.1854 72.9099 29.8604 72.3273 29.6928 71.6255L30.1643 71.3273L30.233 71.2732L30.2659 71.3649C30.2601 71.3793 30.2513 71.401 30.2396 71.4298C30.2333 71.4838 30.2299 71.5306 30.2295 71.5702C30.2344 71.6351 30.2393 71.6999 30.2442 71.7647C30.2984 71.977 30.3727 72.1785 30.4669 72.3691C30.5669 72.5453 30.7067 72.7196 30.8862 72.8921C31.1106 73.1076 31.3105 73.2295 31.486 73.2579C31.6503 73.2756 31.7704 73.1907 31.8464 73.0032C31.9107 72.8446 31.9127 72.6664 31.8527 72.4685C31.7926 72.2706 31.6428 71.9864 31.4032 71.6161C30.7962 70.6525 30.592 69.9256 30.7906 69.4354C30.9075 69.147 31.0934 69.0151 31.3484 69.0397C31.598 69.0392 31.891 69.2005 32.2276 69.5238C32.4856 69.7717 32.684 70.0323 32.8226 70.3056C32.967 70.5645 33.0713 70.865 33.1353 71.2069L32.7083 71.3376L32.6484 71.3701L32.6323 71.2945C32.6556 71.2369 32.6619 71.1828 32.6512 71.1324C32.6575 71.0784 32.647 71.0082 32.6196 70.9219C32.5596 70.7239 32.4822 70.5495 32.3875 70.3985C32.2875 70.2222 32.1814 70.0803 32.0692 69.9725C31.8897 69.8001 31.7207 69.6978 31.5622 69.6658C31.4208 69.6301 31.3209 69.6844 31.2625 69.8286C31.2041 69.9727 31.2161 70.1546 31.2987 70.374C31.3641 70.5971 31.5249 70.9118 31.7811 71.3181C32.0817 71.8072 32.2728 72.201 32.3543 72.4997C32.4471 72.8092 32.438 73.1009 32.327 73.3748C32.1927 73.7064 31.9807 73.8833 31.6911 73.9056C31.4016 73.9279 31.0605 73.7505 30.6678 73.3733Z" fill="white"/>
</g>
<path d="M8.55664 23.9202L9.1863 23.5992L42.8751 56.1845L42.2591 56.531L8.55664 23.9202Z" fill="white"/>
<path d="M13.479 21.2542L14.1086 20.9209L47.7974 53.5185L47.1815 53.865L13.479 21.2542Z" fill="white"/>
<path d="M15.3309 20.2418L15.9606 19.9208L49.6494 52.5185L49.0334 52.8526L15.3309 20.2418Z" fill="white"/>
<path d="M17.1743 19.2533L17.8039 18.9076L51.4927 51.5053L50.8768 51.8642L17.1743 19.2533Z" fill="white"/>
<path d="M22.0757 16.5742L22.7054 16.2532L56.3942 48.8509L55.7782 49.185L22.0757 16.5742Z" fill="white"/>
<path d="M23.9349 15.5742L24.5645 15.2532L58.2533 47.8508L57.6373 48.185L23.9349 15.5742Z" fill="white"/>
<path d="M23.9349 15.5742L24.5645 15.2532L58.2533 47.8508L57.6373 48.185L23.9349 15.5742Z" fill="white"/>
<path d="M28.8486 12.9074L29.4783 12.5864L63.1794 45.1717L62.5511 45.5182L28.8486 12.9074Z" fill="white"/>
<path d="M31.9722 11.253L32.5648 10.895L66.2536 43.4926L65.6747 43.8638L31.9722 11.253Z" fill="white"/>
<path d="M35.6318 9.25291L36.2615 8.89487L69.9503 41.4925L69.3343 41.8637L35.6318 9.25291Z" fill="white"/>
<path d="M40.5775 6.57381L41.1701 6.22811L74.8589 38.8258L74.28 39.1846L40.5775 6.57381Z" fill="white"/>
<path d="M37.4344 8.27756L39.9283 6.93183L73.6171 39.5295L71.1369 40.8884L37.4344 8.27756Z" fill="white"/>
<path d="M40.5775 6.57381L41.1701 6.22811L74.8589 38.8258L74.28 39.1846L40.5775 6.57381Z" fill="white"/>
<path d="M19.0262 18.2286L21.4955 16.9075L55.1842 49.5052L52.7287 50.8394L19.0262 18.2286Z" fill="white"/>
<path d="M10.4086 22.9201L12.9889 21.5497L46.5543 54.1844L44.1111 55.531L10.4086 22.9201Z" fill="white"/>
<path d="M25.1376 14.9198L26.4178 14.2663L60.0942 46.8392L58.8401 47.543L25.1376 14.9198Z" fill="white"/>
<path d="M33.175 10.5616L34.4058 9.89575L68.0946 42.4934L66.8774 43.1724L33.175 10.5616Z" fill="white"/>
<path d="M42.4048 5.57377L43.0344 5.25276L76.7232 37.8505L76.1073 38.1846L42.4048 5.57377Z" fill="white"/>
<path d="M42.4048 5.57377L43.0344 5.25276L76.7232 37.8505L76.1073 38.1846L42.4048 5.57377Z" fill="white"/>
<path d="M45.1453 4.30812L47.5056 3.18921L80.9788 35.5737L78.6181 36.9244L45.1453 4.30812Z" fill="white"/>
<path d="M45.1453 4.30812L47.5056 3.18921L80.9788 35.5737L78.6181 36.9244L45.1453 4.30812Z" fill="white"/>
<path d="M48.1935 2.91407L48.8813 2.50136L82.2688 34.9258L81.6528 35.26L48.1935 2.91407Z" fill="white"/>
<path d="M48.1935 2.91407L48.8813 2.50136L82.2688 34.9258L81.6528 35.26L48.1935 2.91407Z" fill="white"/>
</g>
<defs>
<clipPath id="clip0_3248_4915">
<rect width="82.0824" height="82.0824" fill="white" transform="translate(0.259766 0.550171)"/>
</clipPath>
<clipPath id="clip1_3248_4915">
<rect width="46.2982" height="28.0337" fill="white" transform="matrix(0.721182 0.692746 -0.375542 0.926805 8.87866 22.407)"/>
</clipPath>
</defs>
</svg>
