<svg width="79" height="87" viewBox="0 0 79 87" fill="none" xmlns="http://www.w3.org/2000/svg">
<g clip-path="url(#clip0_6201_1355)">
<path d="M31.0377 73.0112L36.4109 59.5705L37.0578 59.2193L31.6846 72.66L31.0377 73.0112ZM32.9782 71.9576L38.3514 58.5169L40.9387 57.1121L35.5655 70.5528L32.9782 71.9576ZM36.2123 70.2016L41.5855 56.7609L42.2323 56.4097L36.8591 69.8504L36.2123 70.2016ZM33.3882 77.1393C32.9279 77.6152 32.4821 77.9702 32.0509 78.2043C31.6484 78.4228 31.4125 78.4498 31.3433 78.2853C31.2801 78.1056 31.3638 77.7272 31.5945 77.1501C31.637 77.0438 31.711 76.8728 31.8165 76.6372L32.4127 75.3146L31.5934 75.7595L31.7937 75.2583L32.6346 74.8017L33.1091 73.7415L33.7799 73.2881L33.8662 73.2413L33.8479 73.2868C33.801 73.348 33.7612 73.4053 33.7286 73.4586C33.6817 73.5198 33.643 73.5883 33.6126 73.6643L33.2168 74.4857L34.4242 73.8301L34.2238 74.3313L32.9733 75.0102L32.3804 76.3667C32.2749 76.6023 32.2101 76.7505 32.1858 76.8112C32.0036 77.2668 31.9295 77.5508 31.9633 77.6633C32.0032 77.7605 32.131 77.7506 32.3466 77.6335C32.5047 77.5477 32.6678 77.4354 32.8358 77.2966C32.9894 77.1656 33.1798 76.9849 33.407 76.7546L33.3882 77.1393ZM38.1545 69.1471L43.5277 55.7064L44.1745 55.3552L38.8013 68.7959L38.1545 69.1471ZM40.0949 68.0935L45.4681 54.6528L46.1149 54.3016L40.7418 67.7423L40.0949 68.0935ZM42.0354 67.0399L47.4086 53.5992L49.9959 52.1944L44.6227 65.6352L42.0354 67.0399ZM41.0814 70.1442C41.4695 69.9334 41.7352 69.9021 41.8786 70.0502L41.4377 70.6463L41.3797 70.7491L41.3333 70.7387C41.3432 70.6857 41.347 70.648 41.3448 70.6254C41.3343 70.5955 41.3022 70.5772 41.2485 70.5707C41.1556 70.5498 41.0157 70.5901 40.8288 70.6915C40.642 70.793 40.441 70.9437 40.2261 71.1437C40.0171 71.3284 39.8199 71.5544 39.6343 71.8217C39.4343 72.0968 39.2736 72.3862 39.1521 72.6899L38.3325 74.7402L37.7504 75.0563L39.2986 71.1835L39.9023 70.8557L39.5984 71.5736C39.7961 71.276 40.0332 70.9927 40.3095 70.7238C40.5798 70.47 40.8371 70.2768 41.0814 70.1442ZM45.2712 65.283L50.6444 51.8423L51.2912 51.4911L45.918 64.9318L45.2712 65.283ZM47.2117 64.2295L52.5849 50.7887L53.2317 50.4375L47.8585 63.8783L47.2117 64.2295ZM48.5053 63.5271L53.8785 50.0863L55.1721 49.3839L49.799 62.8247L48.5053 63.5271ZM47.4651 66.6781C47.9825 66.3972 48.3201 66.3268 48.4779 66.4671C48.6356 66.6074 48.5749 67.0268 48.2956 67.7254L47.4759 69.7757L46.8507 70.1152L47.0875 69.5229C46.6897 70.0956 46.1818 70.5497 45.5637 70.8853C45.1613 71.1038 44.8845 71.1768 44.7334 71.1042C44.5824 71.0317 44.5706 70.8359 44.6981 70.517C44.8074 70.2436 44.9877 69.9614 45.2392 69.6703C45.4762 69.387 45.7627 69.1066 46.0988 68.829C46.4144 68.5744 46.7447 68.3534 47.0896 68.1661C47.3915 68.0023 47.6585 67.8692 47.8907 67.7669C48.032 67.3572 48.0456 67.112 47.9316 67.0312C47.8176 66.9504 47.5809 67.0076 47.2216 67.2027C47.0347 67.3042 46.8471 67.4358 46.6586 67.5976C46.4558 67.7671 46.2551 67.9593 46.0568 68.174L45.9313 67.9389C46.422 67.3871 46.9332 66.9669 47.4651 66.6781ZM45.8105 70.3946C46.213 70.176 46.5808 69.8752 46.914 69.4922C47.2412 69.1243 47.503 68.7087 47.6995 68.2453C47.4734 68.3324 47.2237 68.4501 46.9506 68.5984C46.5482 68.8169 46.1944 69.0684 45.8893 69.353C45.6047 69.6145 45.4047 69.8896 45.2894 70.1781C45.1194 70.6034 45.2931 70.6755 45.8105 70.3946ZM52.3879 61.419L57.7611 47.9783L58.4079 47.6271L53.0347 61.0678L52.3879 61.419ZM55.622 59.663L60.9952 46.2223L61.642 45.8711L56.2689 59.3118L55.622 59.663ZM56.9157 58.9606L62.2889 45.5199L63.5825 44.8175L58.2093 58.2582L56.9157 58.9606ZM53.2841 66.6934C52.9248 66.8885 52.642 66.9767 52.4357 66.9579C52.2354 66.924 52.1169 66.798 52.0803 66.5801C52.0436 66.3622 52.1042 66.0559 52.262 65.661C52.4138 65.2813 52.6295 64.8967 52.909 64.5071C53.1885 64.1175 53.5013 63.7574 53.8473 63.4269C54.1871 63.1116 54.5368 62.8563 54.8961 62.6612C55.1836 62.5051 55.4252 62.4215 55.621 62.4103C55.8024 62.407 55.9266 62.4763 55.9937 62.6182L55.4723 63.2045L55.411 63.2735L55.3861 63.2513C55.4043 63.2058 55.4081 63.168 55.3976 63.1381C55.3954 63.1155 55.3776 63.0894 55.3444 63.0599C55.2719 63.016 55.1801 63.0064 55.069 63.0311C54.9495 63.0484 54.8035 63.1039 54.6311 63.1975C54.4155 63.3146 54.1971 63.4807 53.9761 63.6958C53.7406 63.9188 53.5271 64.1715 53.3354 64.4539C53.1354 64.729 52.9777 65.0108 52.8624 65.2994C52.747 65.5879 52.6983 65.8225 52.7161 66.003C52.74 66.1684 52.8211 66.2611 52.9594 66.2812C53.106 66.3086 53.2943 66.2599 53.5243 66.135C53.898 65.9321 54.2852 65.597 54.6858 65.1298L54.8452 65.3643C54.322 65.9694 53.8016 66.4125 53.2841 66.6934ZM59.5047 57.5549L64.8778 44.1142L65.5247 43.763L60.1515 57.2037L59.5047 57.5549ZM61.4451 56.5013L66.8183 43.0606L69.4056 41.6558L64.0324 55.0965L61.4451 56.5013ZM64.6792 54.7453L70.0524 41.3046L70.6992 40.9534L65.326 54.3941L64.6792 54.7453ZM61.8551 61.6831C61.3948 62.1589 60.949 62.5139 60.5178 62.7481C60.1153 62.9666 59.8794 62.9936 59.8102 62.829C59.747 62.6493 59.8307 62.2709 60.0614 61.6938C60.1039 61.5875 60.1779 61.4165 60.2834 61.1809L60.8796 59.8584L60.0603 60.3032L60.2606 59.802L61.1015 59.3455L61.576 58.2852L62.2468 57.8318L62.3331 57.785L62.3148 57.8305C62.2679 57.8917 62.2281 57.949 62.1955 58.0024C62.1486 58.0635 62.1099 58.1321 62.0795 58.208L61.6837 59.0294L62.8911 58.3738L62.6907 58.875L61.4402 59.554L60.8473 60.9104C60.7418 61.146 60.677 61.2942 60.6527 61.3549C60.4705 61.8106 60.3964 62.0946 60.4302 62.207C60.4701 62.3042 60.5979 62.2943 60.8135 62.1773C60.9716 62.0914 61.1347 61.9791 61.3027 61.8403C61.4563 61.7093 61.6467 61.5287 61.8739 61.2983L61.8551 61.6831ZM66.6214 53.6908L71.9946 40.2501L72.6414 39.8989L67.2682 53.3396L66.6214 53.6908ZM69.2087 52.2861L74.5819 38.8453L77.1691 37.4406L71.796 50.8813L69.2087 52.2861ZM72.4428 50.5301L77.816 37.0894L78.4628 36.7382L73.0896 50.1789L72.4428 50.5301ZM67.2464 59.0947C66.9158 59.2742 66.6545 59.3507 66.4626 59.3241C66.285 59.2897 66.1851 59.1597 66.1628 58.934C66.1261 58.7161 66.1867 58.4097 66.3445 58.0148C66.5024 57.6199 66.7211 57.2277 67.0006 56.8381C67.2658 56.4563 67.554 56.1156 67.8651 55.8158C68.1967 55.4931 68.5278 55.242 68.8584 55.0625C69.189 54.883 69.44 54.818 69.6115 54.8676C69.8035 54.8942 69.9106 55.0203 69.9329 55.246C69.9552 55.4717 69.8874 55.782 69.7296 56.1769C69.5717 56.5718 69.3602 56.9601 69.095 57.3419C68.8299 57.7237 68.5345 58.0683 68.209 58.3759C67.8979 58.6756 67.577 58.9152 67.2464 59.0947ZM67.4468 58.5935C67.648 58.4843 67.8622 58.3145 68.0893 58.0841C68.296 57.8768 68.4952 57.6319 68.6869 57.3495C68.8703 57.0596 69.0196 56.7704 69.135 56.4819C69.3111 56.0415 69.3531 55.7392 69.2612 55.5751C69.1692 55.411 68.9651 55.4148 68.6489 55.5865C68.3327 55.7581 68.0193 56.0353 67.7088 56.4179C67.3983 56.8006 67.155 57.2121 66.9789 57.6525C66.8636 57.9411 66.8004 58.1835 66.7895 58.3796C66.7991 58.5528 66.8586 58.6572 66.9682 58.6929C67.0716 58.7437 67.2312 58.7106 67.4468 58.5935Z" fill="white"/>
<g clip-path="url(#clip1_6201_1355)">
<path d="M-4.89803 39.0419L0.537928 25.6265L1.06873 26.1363L-4.36723 39.5518L-4.89803 39.0419ZM-3.30563 40.5715L2.13033 27.1561L2.66113 27.6659L-2.77483 41.0814L-3.30563 40.5715ZM-0.651627 43.1209L4.78433 29.7054L5.84593 30.7252L0.409973 44.1406L-0.651627 43.1209ZM-4.84842 49.2926C-5.02536 49.1226 -5.169 48.9109 -5.27934 48.6575C-5.38969 48.4041 -5.46109 48.1355 -5.49354 47.8516L-5.87317 48.1819L-6.17396 47.8929L-3.89823 42.2766L-3.34973 42.8035L-3.36816 42.849C-3.41018 42.8718 -3.44323 42.8927 -3.46731 42.9117C-3.49753 42.9458 -3.53107 43.0084 -3.56792 43.0993L-4.3695 45.0775C-4.17734 44.9673 -3.97413 44.9309 -3.75985 44.9682C-3.54558 45.0056 -3.35587 45.1036 -3.19073 45.2622C-2.81327 45.6248 -2.58005 46.0804 -2.49107 46.6292C-2.40822 47.1931 -2.49579 47.7934 -2.75377 48.4301C-2.9319 48.8697 -3.14443 49.192 -3.39138 49.397C-3.63832 49.6021 -3.89277 49.6841 -4.15472 49.643C-4.40487 49.6133 -4.6361 49.4965 -4.84842 49.2926ZM-4.68038 48.6959C-4.44447 48.9225 -4.2007 48.9882 -3.94908 48.8929C-3.70361 48.8128 -3.47645 48.5151 -3.26761 47.9997C-3.06491 47.4995 -2.9852 47.0601 -3.02847 46.6816C-3.07739 46.2766 -3.22571 45.9551 -3.47341 45.7172C-3.72112 45.4792 -3.98 45.4306 -4.25004 45.5713C-4.51395 45.6969 -4.73803 45.9871 -4.9223 46.4418C-5.31541 47.412 -5.23477 48.1633 -4.68038 48.6959ZM0.942156 44.6518L6.37811 31.2364L6.90891 31.7462L1.47296 45.1617L0.942156 44.6518ZM2.00376 45.6716L7.43971 32.2561L8.50131 33.2758L3.06536 46.6913L2.00376 45.6716ZM4.12696 47.711L9.56292 34.2956L10.0937 34.8055L4.65776 48.2209L4.12696 47.711ZM1.02715 54.9365C0.578916 54.5059 0.295686 53.9917 0.177457 53.3937C0.0474325 52.7845 0.111409 52.1615 0.369387 51.5249C0.541372 51.1004 0.756734 50.7914 1.01547 50.5977C1.25628 50.4078 1.51355 50.339 1.78729 50.3914C2.05538 50.4173 2.31918 50.5548 2.57868 50.8041C2.94434 51.1554 3.17781 51.5902 3.27908 52.1087C3.37421 52.6423 3.29892 53.2122 3.05323 53.8186C3.02866 53.8792 2.99181 53.9702 2.94267 54.0915L0.801773 52.035C0.623157 52.5162 0.579074 52.9688 0.669526 53.3926C0.759978 53.8164 0.952648 54.17 1.24754 54.4532C1.56602 54.7591 1.88387 54.8644 2.2011 54.769L2.3283 55.365C1.9091 55.5099 1.47538 55.367 1.02715 54.9365ZM2.65843 53.1551C2.80585 52.7913 2.85178 52.4353 2.79622 52.0871C2.74067 51.7389 2.59494 51.4515 2.35902 51.2249C2.1467 51.0209 1.91805 50.9382 1.67306 50.9766C1.42807 51.015 1.20804 51.2143 1.01295 51.5745L2.65843 53.1551ZM6.78234 50.2617L12.2183 36.8463L13.2799 37.866L7.84394 51.2815L6.78234 50.2617ZM8.37474 51.7913L13.8107 38.3759L14.8723 39.3956L9.43634 52.8111L8.37474 51.7913ZM10.4979 53.8308L15.9339 40.4154L16.9955 41.4351L11.5595 54.8506L10.4979 53.8308ZM12.6225 55.8716L18.0585 42.4562L18.5893 42.966L13.1533 56.3815L12.6225 55.8716ZM14.2149 57.4012L19.6509 43.9858L20.1817 44.4957L14.7457 57.9111L14.2149 57.4012ZM15.2765 58.421L20.7125 45.0055L21.7741 46.0253L16.3381 59.4407L15.2765 58.421ZM14.1706 61.9389C14.5952 62.3468 14.8613 62.8024 14.9687 63.3057C15.0761 63.809 14.9885 64.4093 14.706 65.1066L13.8767 67.153L13.3636 66.6602L13.6032 66.069C13.242 66.3538 12.8078 66.2526 12.3006 65.7654C11.9703 65.4481 11.7507 65.1003 11.6418 64.722C11.533 64.3436 11.543 63.9953 11.672 63.6769C11.7826 63.4041 11.9485 63.2371 12.1699 63.176C12.3795 63.1036 12.6269 63.12 12.9119 63.2254C13.179 63.3345 13.4541 63.5251 13.7372 63.797C13.9849 64.035 14.2029 64.2654 14.3911 64.4883C14.5395 64.0412 14.5739 63.6531 14.4943 63.3239C14.4147 62.9947 14.2274 62.6884 13.9325 62.4052C13.7792 62.2579 13.6223 62.1598 13.4618 62.111C13.2895 62.0508 13.1168 62.0323 12.9436 62.0554L12.8702 61.4479C13.3007 61.356 13.7341 61.5197 14.1706 61.9389ZM12.5379 65.3616C12.8682 65.6789 13.1799 65.7993 13.4731 65.7229C13.7601 65.6616 14.0016 65.4093 14.1977 64.9658C14.0156 64.7277 13.8125 64.5011 13.5883 64.2858C13.2581 63.9685 12.962 63.7894 12.7 63.7484C12.456 63.7035 12.2756 63.8251 12.1589 64.1131C11.987 64.5375 12.1133 64.9537 12.5379 65.3616ZM18.4627 61.4815L23.8987 48.0661L24.4295 48.5759L18.9935 61.9914L18.4627 61.4815ZM20.0551 63.0111L25.4911 49.5957L26.0219 50.1056L20.5859 63.521L20.0551 63.0111ZM22.7091 65.5605L28.1451 52.145L29.2067 53.1648L23.7707 66.5802L22.7091 65.5605ZM18.5123 71.7322C18.3354 71.5622 18.1917 71.3505 18.0814 71.0971C17.9711 70.8437 17.8997 70.5751 17.8672 70.2912L17.4876 70.6215L17.1868 70.3326L19.4625 64.7163L20.011 65.2431L19.9926 65.2886C19.9506 65.3114 19.9175 65.3323 19.8934 65.3513C19.8632 65.3855 19.8297 65.448 19.7928 65.539L18.9912 67.5172C19.1834 67.4069 19.3866 67.3705 19.6009 67.4078C19.8152 67.4452 20.0049 67.5432 20.17 67.7018C20.5475 68.0644 20.7807 68.5201 20.8697 69.0688C20.9525 69.6328 20.8649 70.2331 20.607 70.8697C20.4288 71.3093 20.2163 71.6316 19.9694 71.8367C19.7224 72.0417 19.468 72.1237 19.206 72.0827C18.9559 72.053 18.7246 71.9361 18.5123 71.7322ZM18.6804 71.1355C18.9163 71.3621 19.16 71.4278 19.4117 71.3325C19.6571 71.2525 19.8843 70.9547 20.0931 70.4393C20.2958 69.9391 20.3755 69.4997 20.3323 69.1212C20.2833 68.7162 20.135 68.3947 19.8873 68.1568C19.6396 67.9189 19.3807 67.8703 19.1107 68.011C18.8468 68.1365 18.6227 68.4267 18.4384 68.8815C18.0453 69.8516 18.126 70.603 18.6804 71.1355ZM24.3029 67.0914L29.7389 53.676L30.2697 54.1859L24.8337 67.6013L24.3029 67.0914ZM25.3645 68.1112L30.8005 54.6957L32.9237 56.7352L27.4877 70.1507L25.3645 68.1112ZM28.5493 71.1704L33.9853 57.7549L34.5161 58.2648L29.0801 71.6803L28.5493 71.1704ZM24.2463 77.2401C23.7391 76.7529 23.3974 76.1404 23.2212 75.4025L23.7169 75.089L23.7892 75.032L23.8238 75.1285C23.8177 75.1436 23.8085 75.1664 23.7962 75.1967C23.7895 75.2535 23.786 75.3027 23.7855 75.3444C23.7907 75.4125 23.7958 75.4807 23.801 75.5488C23.858 75.772 23.936 75.9839 24.0351 76.1843C24.1403 76.3696 24.2872 76.5529 24.4759 76.7341C24.7119 76.9608 24.9221 77.089 25.1066 77.1188C25.2794 77.1374 25.4057 77.0481 25.4855 76.851C25.5531 76.6843 25.5553 76.4969 25.4921 76.2888C25.429 76.0807 25.2714 75.782 25.0195 75.3926C24.3813 74.3794 24.1666 73.6151 24.3755 73.0998C24.4983 72.7966 24.6938 72.6579 24.9619 72.6838C25.2243 72.6832 25.5325 72.8528 25.8863 73.1927C26.1576 73.4533 26.3662 73.7273 26.5119 74.0147C26.6638 74.287 26.7734 74.6029 26.8407 74.9624L26.3918 75.0997L26.3288 75.134L26.3118 75.0545C26.3364 74.9939 26.343 74.937 26.3317 74.8841C26.3383 74.8273 26.3273 74.7535 26.2985 74.6627C26.2353 74.4546 26.154 74.2711 26.0545 74.1124C25.9493 73.9271 25.8377 73.7778 25.7198 73.6645C25.531 73.4832 25.3534 73.3757 25.1868 73.342C25.0381 73.3045 24.9331 73.3616 24.8716 73.5132C24.8102 73.6647 24.8229 73.8559 24.9096 74.0867C24.9784 74.3212 25.1475 74.6521 25.4169 75.0793C25.7329 75.5935 25.9338 76.0076 26.0196 76.3216C26.1172 76.647 26.1076 76.9537 25.9909 77.2417C25.8496 77.5903 25.6267 77.7764 25.3223 77.7998C25.0178 77.8233 24.6592 77.6367 24.2463 77.2401Z" fill="white"/>
</g>
<path d="M1.10376 24.9851L1.76578 24.6476L37.1863 58.908L36.5387 59.2723L1.10376 24.9851Z" fill="white"/>
<path d="M6.27913 22.1821L6.94116 21.8316L42.3617 56.105L41.7141 56.4693L6.27913 22.1821Z" fill="white"/>
<path d="M8.22626 21.1177L8.88828 20.7802L44.3088 55.0535L43.6612 55.4048L8.22626 21.1177Z" fill="white"/>
<path d="M10.1644 20.0784L10.8264 19.7149L46.247 53.9882L45.5994 54.3655L10.1644 20.0784Z" fill="white"/>
<path d="M15.3178 17.2615L15.9798 16.924L51.4004 51.1974L50.7527 51.5487L15.3178 17.2615Z" fill="white"/>
<path d="M17.2725 16.2101L17.9345 15.8726L53.3551 50.1459L52.7074 50.4972L17.2725 16.2101Z" fill="white"/>
<path d="M17.2725 16.2101L17.9345 15.8726L53.3551 50.1459L52.7074 50.4972L17.2725 16.2101Z" fill="white"/>
<path d="M22.4389 13.4062L23.1009 13.0687L58.5344 47.3291L57.8738 47.6934L22.4389 13.4062Z" fill="white"/>
<path d="M25.723 11.6668L26.3461 11.2903L61.7666 45.5637L61.158 45.954L25.723 11.6668Z" fill="white"/>
<path d="M29.5708 9.56387L30.2328 9.18743L65.6533 43.4608L65.0057 43.8511L29.5708 9.56387Z" fill="white"/>
<path d="M34.7707 6.74705L35.3937 6.38358L70.8143 40.6569L70.2056 41.0342L34.7707 6.74705Z" fill="white"/>
<path d="M31.466 8.53838L34.0881 7.12347L69.5086 41.3968L66.9009 42.8256L31.466 8.53838Z" fill="white"/>
<path d="M34.7707 6.74705L35.3937 6.38358L70.8143 40.6569L70.2056 41.0342L34.7707 6.74705Z" fill="white"/>
<path d="M12.1115 19.0009L14.7077 17.612L50.1282 51.8853L47.5465 53.2881L12.1115 19.0009Z" fill="white"/>
<path d="M3.05089 23.9337L5.76389 22.4928L41.0546 56.8051L38.4859 58.2208L3.05089 23.9337Z" fill="white"/>
<path d="M18.537 15.5221L19.8831 14.835L55.2906 49.0823L53.972 49.8222L18.537 15.5221Z" fill="white"/>
<path d="M26.9876 10.9398L28.2817 10.2398L63.7022 44.5131L62.4225 45.227L26.9876 10.9398Z" fill="white"/>
<path d="M36.6918 5.6956L37.3539 5.3581L72.7744 39.6315L72.1268 39.9828L36.6918 5.6956Z" fill="white"/>
<path d="M36.6918 5.6956L37.3539 5.3581L72.7744 39.6315L72.1268 39.9828L36.6918 5.6956Z" fill="white"/>
<path d="M39.5733 4.36489L42.0549 3.18847L77.2487 37.2376L74.7667 38.6579L39.5733 4.36489Z" fill="white"/>
<path d="M39.5733 4.36489L42.0549 3.18847L77.2487 37.2376L74.7667 38.6579L39.5733 4.36489Z" fill="white"/>
<path d="M42.7781 2.89918L43.5013 2.46526L78.605 36.5565L77.9574 36.9078L42.7781 2.89918Z" fill="white"/>
<path d="M42.7781 2.89918L43.5013 2.46526L78.605 36.5565L77.9574 36.9078L42.7781 2.89918Z" fill="white"/>
</g>
<defs>
<clipPath id="clip0_6201_1355">
<rect width="86.3018" height="86.3018" fill="white" transform="translate(-7.61951 0.413727)"/>
</clipPath>
<clipPath id="clip1_6201_1355">
<rect width="48.6782" height="29.4747" fill="white" transform="matrix(0.721182 0.692746 -0.375542 0.926805 1.4425 23.394)"/>
</clipPath>
</defs>
</svg>
