<svg width="166" height="166" viewBox="0 0 166 166" fill="none" xmlns="http://www.w3.org/2000/svg">
<path d="M22.9105 71.0181L18.4986 70.0735L18.8288 68.5311C18.8946 68.2237 19.002 67.9816 19.1511 67.8048C19.2986 67.6276 19.4719 67.5092 19.6709 67.4497C19.8685 67.3898 20.075 67.383 20.2904 67.4291C20.48 67.4697 20.6293 67.537 20.7383 67.6309C20.8477 67.7234 20.9266 67.8319 20.9751 67.9565C21.0238 68.0795 21.0519 68.208 21.0593 68.3417L21.1024 68.351C21.1399 68.2178 21.2164 68.0922 21.3317 67.9742C21.4471 67.8563 21.5951 67.7685 21.7756 67.711C21.9561 67.6536 22.1627 67.6497 22.3954 67.6995C22.6166 67.7469 22.8047 67.8398 22.9598 67.9781C23.115 68.1165 23.221 68.3051 23.278 68.5441C23.335 68.7831 23.3262 69.0764 23.2518 69.424L22.9105 71.0181ZM22.551 70.3824L22.7779 69.3225C22.8526 68.9735 22.8382 68.7113 22.7345 68.5359C22.6298 68.3588 22.4804 68.2495 22.2865 68.208C22.1372 68.176 21.9912 68.1845 21.8485 68.2336C21.7044 68.2823 21.5792 68.3689 21.4729 68.4934C21.3652 68.6175 21.2908 68.7758 21.2496 68.9683L21.0171 70.054L22.551 70.3824ZM20.5518 69.9544L20.764 68.9634C20.7984 68.8026 20.7979 68.6508 20.7624 68.508C20.7271 68.3637 20.6602 68.2413 20.5616 68.1406C20.4634 68.0384 20.3367 67.9707 20.1815 67.9375C19.9877 67.896 19.8088 67.9283 19.6449 68.0344C19.4795 68.1402 19.3655 68.3396 19.3028 68.6326L19.0869 69.6408L20.5518 69.9544Z" fill="white"/>
<path d="M24.933 63.333L20.6863 61.8088L21.6062 59.2458L22.0624 59.4096L21.3271 61.4582L22.762 61.9733L23.4497 60.0573L23.9058 60.221L23.2182 62.137L24.6614 62.655L25.4086 60.5731L25.8648 60.7369L24.933 63.333Z" fill="white"/>
<path d="M27.8215 56.2025L23.8159 54.1259L24.0674 53.6408L25.8511 54.5656L26.9584 52.4297L25.1747 51.505L25.4261 51.0199L29.4317 53.0966L29.1803 53.5816L27.3887 52.6528L26.2814 54.7886L28.073 55.7174L27.8215 56.2025Z" fill="white"/>
<path d="M29.5079 44.5949L33.201 47.1869L32.8871 47.6341L29.1941 45.0421L29.5079 44.5949Z" fill="white"/>
<path d="M36.5694 38.2887C36.4275 38.2237 36.2865 38.1805 36.1464 38.159C36.0062 38.1355 35.8685 38.1352 35.7332 38.1583C35.599 38.1803 35.4693 38.2265 35.3443 38.2969C35.2193 38.3674 35.1014 38.4625 34.9908 38.5822C34.8095 38.7786 34.6953 39.004 34.6482 39.2585C34.6012 39.5129 34.6325 39.7788 34.7423 40.0561C34.8521 40.3334 35.0505 40.6046 35.3375 40.8696C35.6245 41.1347 35.9111 41.3104 36.1972 41.3967C36.4833 41.483 36.7528 41.491 37.0057 41.4207C37.2586 41.3503 37.4797 41.2127 37.6691 41.0076C37.8444 40.8177 37.9584 40.6131 38.011 40.3938C38.0635 40.1724 38.0527 39.9525 37.9786 39.7341C37.9043 39.5136 37.7658 39.3096 37.5629 39.1223L37.7024 39.0232L36.7817 40.0202L36.4256 39.6914L37.5915 38.4289L37.9475 38.7578C38.2205 39.0099 38.4041 39.2874 38.4982 39.5902C38.5934 39.892 38.6024 40.1962 38.5252 40.5028C38.4479 40.8073 38.2877 41.0911 38.0445 41.3544C37.7735 41.6479 37.4663 41.842 37.1229 41.9367C36.7805 42.0304 36.4247 42.0217 36.0555 41.9106C35.6872 41.7984 35.3283 41.5809 34.9787 41.2581C34.7165 41.0159 34.5132 40.7631 34.3686 40.4997C34.224 40.2342 34.1375 39.9684 34.1093 39.7024C34.081 39.4364 34.1092 39.1786 34.1939 38.9289C34.2785 38.6792 34.419 38.448 34.6153 38.2355C34.7768 38.0607 34.9537 37.9222 35.146 37.8199C35.3383 37.7156 35.5373 37.6485 35.7429 37.6185C35.9485 37.5864 36.1545 37.5917 36.361 37.6344C36.5663 37.6761 36.7633 37.7561 36.952 37.8744L36.5694 38.2887Z" fill="white"/>
<path d="M42.5048 36.8906L39.6277 33.415L40.0485 33.0666L41.3297 34.6143L43.183 33.0802L41.9018 31.5325L42.3226 31.1841L45.1997 34.6597L44.7788 35.0081L43.492 33.4536L41.6388 34.9877L42.9256 36.5422L42.5048 36.8906Z" fill="white"/>
<path d="M49.7295 31.4682L47.3413 27.6401L47.8049 27.351L49.9365 30.7678L51.7159 29.6577L51.9725 30.0689L49.7295 31.4682Z" fill="white"/>
<path d="M56.3307 22.8176L58.1873 26.9298L57.6894 27.1546L55.8328 23.0424L56.3307 22.8176Z" fill="white"/>
<path d="M65.6205 20.9907C65.5316 20.8625 65.4323 20.7534 65.3227 20.6635C65.214 20.5718 65.0956 20.5014 64.9675 20.4523C64.8408 20.4028 64.7057 20.3765 64.5623 20.3734C64.4188 20.3703 64.2689 20.3921 64.1127 20.4388C63.8566 20.5153 63.6435 20.6511 63.4733 20.846C63.3032 21.041 63.1947 21.2857 63.1478 21.5802C63.1009 21.8748 63.1334 22.2092 63.2453 22.5835C63.3572 22.9578 63.5142 23.255 63.7164 23.4751C63.9186 23.6952 64.1464 23.8394 64.3998 23.9078C64.6533 23.9762 64.9137 23.9704 65.1811 23.8905C65.4287 23.8165 65.6311 23.6985 65.7881 23.5366C65.9461 23.3729 66.0489 23.1781 66.0964 22.9524C66.1449 22.7248 66.1296 22.4788 66.0505 22.2142L66.221 22.2001L64.9208 22.5886L64.782 22.1243L66.4284 21.6322L66.5672 22.0966C66.6736 22.4526 66.6902 22.7849 66.6168 23.0935C66.5449 23.4016 66.3976 23.6679 66.1749 23.8924C65.9533 24.115 65.6708 24.2776 65.3274 24.3802C64.9446 24.4946 64.5814 24.505 64.2377 24.4115C63.8954 24.3176 63.5937 24.1288 63.3326 23.8451C63.0729 23.5609 62.8749 23.1908 62.7387 22.7349C62.6365 22.3929 62.5903 22.0718 62.6002 21.7715C62.6111 21.4693 62.6721 21.1966 62.7834 20.9533C62.8946 20.7101 63.0503 20.5026 63.2504 20.3309C63.4505 20.1592 63.6891 20.0319 63.9664 19.9491C64.1943 19.8809 64.4171 19.8519 64.6348 19.862C64.8534 19.8702 65.0588 19.9139 65.251 19.9928C65.4442 20.07 65.6187 20.1796 65.7746 20.3215C65.93 20.4621 66.0588 20.6313 66.1609 20.8292L65.6205 20.9907Z" fill="white"/>
<path d="M71.4396 22.8125L70.7354 18.3559L71.275 18.2706L71.5886 20.2552L73.9649 19.8797L73.6513 17.8951L74.191 17.8098L74.8952 22.2665L74.3555 22.3517L74.0406 20.3584L71.6643 20.7339L71.9793 22.7272L71.4396 22.8125Z" fill="white"/>
<path d="M79.8345 17.8141L79.8233 17.3295L83.2064 17.2516L83.2175 17.7361L81.7991 17.7688L81.8919 21.795L81.3456 21.8076L81.2529 17.7814L79.8345 17.8141Z" fill="white"/>
<path d="M88.0912 22.0214L88.5894 17.5371L91.2958 17.8378L91.2423 18.3195L89.0789 18.0791L88.9106 19.5943L90.9338 19.8191L90.8803 20.3008L88.8571 20.076L88.6877 21.6L90.8861 21.8443L90.8326 22.326L88.0912 22.0214Z" fill="white"/>
<path d="M97.1125 23.5313L95.7615 23.1945L96.853 18.8166L98.2638 19.1683C98.6885 19.2742 99.0301 19.4524 99.2885 19.7031C99.5472 19.9522 99.7165 20.2601 99.7961 20.6266C99.8762 20.9917 99.8597 21.4008 99.7467 21.854C99.633 22.31 99.4539 22.6824 99.2094 22.9711C98.9652 23.2583 98.6657 23.4516 98.311 23.5508C97.9566 23.6487 97.5571 23.6422 97.1125 23.5313ZM96.4089 22.8564L97.1955 23.0525C97.5575 23.1428 97.8749 23.1477 98.1477 23.0674C98.4205 22.9871 98.6475 22.8325 98.8287 22.6037C99.0098 22.3749 99.1448 22.0823 99.2337 21.7261C99.3218 21.3726 99.3399 21.054 99.2881 20.7701C99.2366 20.4848 99.1132 20.2452 98.9179 20.0511C98.7229 19.8557 98.4544 19.7154 98.1124 19.6301L97.2659 19.419L96.4089 22.8564Z" fill="white"/>
<path d="M115.588 24.496L111.955 30.9656L111.571 30.7498L115.204 24.2802L115.588 24.496Z" fill="white"/>
<path d="M124.642 38.5636L127.812 35.3531L128.935 36.4614C129.158 36.6823 129.305 36.9031 129.373 37.1239C129.443 37.3436 129.45 37.5533 129.393 37.7531C129.337 37.9518 129.232 38.1296 129.077 38.2863C128.941 38.4243 128.804 38.514 128.666 38.5553C128.529 38.5977 128.395 38.6059 128.264 38.5797C128.134 38.5545 128.011 38.5091 127.894 38.4434L127.863 38.4747C127.955 38.578 128.02 38.71 128.057 38.8707C128.095 39.0315 128.089 39.2034 128.04 39.3865C127.992 39.5696 127.884 39.7458 127.716 39.9151C127.558 40.076 127.378 40.1847 127.178 40.241C126.978 40.2973 126.762 40.2852 126.53 40.2046C126.298 40.124 126.055 39.9588 125.802 39.7091L124.642 38.5636ZM125.371 38.6026L126.143 39.3642C126.397 39.615 126.625 39.7439 126.829 39.7509C127.035 39.7579 127.207 39.6909 127.346 39.5498C127.454 39.4411 127.525 39.3134 127.561 39.1668C127.597 39.0191 127.591 38.8669 127.544 38.7104C127.497 38.5529 127.404 38.4049 127.264 38.2666L126.474 37.4865L125.371 38.6026ZM126.808 37.1479L127.529 37.8599C127.646 37.9755 127.774 38.0567 127.914 38.1036C128.054 38.1516 128.193 38.1611 128.331 38.1321C128.47 38.1043 128.596 38.0339 128.707 37.921C128.846 37.7799 128.915 37.6118 128.914 37.4165C128.914 37.2202 128.807 37.0168 128.594 36.8063L127.86 36.0819L126.808 37.1479Z" fill="white"/>
<path d="M130.031 44.404L133.601 41.6446L135.266 43.7991L134.883 44.0955L133.552 42.3733L132.346 43.3057L133.59 44.9163L133.207 45.2127L131.962 43.6021L130.749 44.5398L132.102 46.2899L131.718 46.5863L130.031 44.404Z" fill="white"/>
<path d="M135.218 51.9384L134.521 50.7331L138.426 48.4742L139.154 49.7329C139.373 50.1118 139.483 50.4812 139.482 50.8412C139.483 51.2004 139.379 51.5361 139.171 51.8482C138.965 52.1595 138.659 52.432 138.255 52.6659C137.848 52.9012 137.456 53.0313 137.078 53.0562C136.702 53.0804 136.355 52.9995 136.037 52.8135C135.72 52.6268 135.447 52.3351 135.218 51.9384ZM135.214 50.9634L135.62 51.6652C135.806 51.9882 136.023 52.2198 136.271 52.36C136.518 52.5003 136.787 52.556 137.078 52.5272C137.368 52.4983 137.672 52.392 137.99 52.2082C138.305 52.0258 138.547 51.8173 138.715 51.5827C138.884 51.3474 138.971 51.0921 138.974 50.8168C138.979 50.5408 138.894 50.2502 138.717 49.9451L138.28 49.1898L135.214 50.9634Z" fill="white"/>
<path d="M143.364 58.3426L139.192 60.0608L138.984 59.5556L143.156 57.8374L143.364 58.3426Z" fill="white"/>
<path d="M141.219 65.9623L145.583 64.8155L146.27 67.4321L145.801 67.5552L145.253 65.4671L143.778 65.8546L144.275 67.7467L143.807 67.8699L143.309 65.9778L141.358 66.4907L141.219 65.9623Z" fill="white"/>
<path d="M142.923 73.9152L147.401 73.3603L147.733 76.0452L147.252 76.1048L146.987 73.9622L145.474 74.1497L145.714 76.0912L145.233 76.1508L144.993 74.2093L142.99 74.4575L142.923 73.9152Z" fill="white"/>
<path d="M143.552 81.991L148.064 82.0379L148.035 84.7607L147.551 84.7557L147.573 82.5792L146.049 82.5633L146.028 84.5989L145.543 84.5938L145.564 82.5583L144.031 82.5424L144.008 84.7542L143.523 84.7491L143.552 81.991Z" fill="white"/>
<path d="M143.263 90.4688L147.728 91.1165L147.509 92.6253C147.458 92.9741 147.357 93.2518 147.206 93.4584C147.055 93.6651 146.869 93.8073 146.647 93.8849C146.425 93.9626 146.183 93.9823 145.92 93.9441C145.657 93.9059 145.431 93.8183 145.243 93.6812C145.055 93.5442 144.919 93.356 144.835 93.1167C144.753 92.8777 144.737 92.5852 144.787 92.2393L144.964 91.0183L145.452 91.0892L145.278 92.2927C145.243 92.531 145.25 92.728 145.299 92.8834C145.347 93.0404 145.431 93.1608 145.549 93.2448C145.669 93.3304 145.818 93.3862 145.997 93.4121C146.176 93.4381 146.337 93.4273 146.48 93.3798C146.624 93.3324 146.742 93.2405 146.836 93.1043C146.932 92.9682 146.997 92.7795 147.032 92.5383L147.17 91.5877L143.184 91.0095L143.263 90.4688ZM144.964 92.8615L142.798 93.6694L142.889 93.0415L145.052 92.2511L144.964 92.8615Z" fill="white"/>
<path d="M141.567 98.0999L145.906 99.337L145.159 101.956L144.693 101.823L145.29 99.7295L143.824 99.3115L143.266 101.269L142.8 101.136L143.358 99.1786L141.883 98.7582L141.277 100.885L140.811 100.752L141.567 98.0999Z" fill="white"/>
<path d="M141.741 110.776L137.606 108.972L137.818 108.487L142.048 107.65L142.065 107.61L138.818 106.193L139.037 105.692L143.172 107.497L142.961 107.981L138.719 108.823L138.701 108.863L141.956 110.283L141.741 110.776Z" fill="white"/>
<path d="M138.857 115.172L139.272 115.424L137.517 118.317L137.103 118.066L137.838 116.853L134.395 114.765L134.678 114.297L138.122 116.386L138.857 115.172Z" fill="white"/>
<path d="M128.474 131.342L123.372 125.955L123.692 125.652L128.794 131.039L128.474 131.342Z" fill="white"/>
<path d="M112.356 135.821L114.483 139.8L113.092 140.544C112.815 140.692 112.56 140.766 112.329 140.767C112.098 140.768 111.896 140.713 111.722 140.599C111.549 140.487 111.41 140.334 111.307 140.139C111.215 139.968 111.17 139.811 111.171 139.667C111.171 139.524 111.203 139.393 111.267 139.276C111.33 139.159 111.41 139.055 111.507 138.963L111.486 138.924C111.36 138.981 111.215 139.004 111.051 138.992C110.886 138.98 110.723 138.924 110.563 138.823C110.403 138.722 110.266 138.567 110.154 138.357C110.047 138.158 109.997 137.954 110.002 137.746C110.008 137.538 110.083 137.336 110.229 137.138C110.375 136.94 110.605 136.757 110.918 136.59L112.356 135.821ZM112.102 136.506L111.146 137.017C110.832 137.185 110.641 137.366 110.574 137.558C110.506 137.753 110.519 137.937 110.613 138.112C110.685 138.247 110.785 138.353 110.915 138.43C111.045 138.509 111.192 138.548 111.356 138.549C111.52 138.551 111.689 138.506 111.863 138.413L112.842 137.89L112.102 136.506ZM113.066 138.309L112.172 138.787C112.027 138.865 111.912 138.963 111.826 139.082C111.738 139.202 111.688 139.332 111.675 139.473C111.66 139.614 111.69 139.754 111.765 139.894C111.859 140.069 111.999 140.185 112.186 140.241C112.373 140.299 112.599 140.258 112.863 140.116L113.772 139.63L113.066 138.309Z" fill="white"/>
<path d="M105.181 139.238L106.759 143.465L104.208 144.418L104.038 143.964L106.077 143.202L105.544 141.774L103.637 142.486L103.468 142.032L105.375 141.32L104.839 139.884L102.766 140.657L102.597 140.203L105.181 139.238Z" fill="white"/>
<path d="M97.2104 141.786L98.2107 146.186L96.7241 146.524C96.379 146.602 96.0827 146.604 95.8352 146.53C95.5867 146.456 95.3855 146.327 95.2316 146.14C95.0778 145.954 94.9714 145.731 94.9124 145.472C94.8535 145.213 94.8529 144.965 94.9107 144.729C94.9671 144.493 95.0905 144.287 95.281 144.112C95.4718 143.937 95.7383 143.811 96.0806 143.733L97.1461 143.491L97.2536 143.964L96.2052 144.202C95.9689 144.256 95.7884 144.34 95.6638 144.454C95.5391 144.568 95.4604 144.702 95.4275 144.855C95.3935 145.011 95.3966 145.177 95.4366 145.353C95.4767 145.529 95.5454 145.679 95.6429 145.803C95.7389 145.927 95.8682 146.012 96.0308 146.058C96.1937 146.105 96.3947 146.102 96.6339 146.047L97.5705 145.834L96.6777 141.907L97.2104 141.786Z" fill="white"/>
<path d="M89.2156 143.196L89.6206 147.689L88.1022 147.826C87.7511 147.858 87.4575 147.824 87.2215 147.724C86.9855 147.626 86.8041 147.478 86.6771 147.28C86.5501 147.082 86.4747 146.851 86.4508 146.586C86.427 146.321 86.46 146.082 86.5497 145.867C86.6395 145.652 86.7911 145.477 87.0043 145.339C87.2177 145.204 87.4985 145.12 87.8466 145.089L89.0754 144.978L89.1197 145.469L87.9085 145.579C87.6686 145.6 87.4787 145.653 87.3387 145.736C87.1973 145.82 87.0995 145.929 87.0452 146.063C86.9897 146.2 86.97 146.358 86.9862 146.538C87.0024 146.718 87.0503 146.872 87.1297 147C87.2091 147.129 87.326 147.223 87.4803 147.283C87.6348 147.344 87.8334 147.364 88.0762 147.342L89.0329 147.256L88.6714 143.245L89.2156 143.196ZM87.2823 145.405L85.9945 143.486L86.6265 143.429L87.8967 145.35L87.2823 145.405Z" fill="white"/>
<path d="M77.5656 145.632C77.5864 145.156 77.6903 144.749 77.8771 144.411C78.064 144.072 78.3112 143.815 78.6188 143.64C78.9263 143.466 79.2723 143.387 79.6568 143.404C80.0412 143.42 80.379 143.529 80.6701 143.73C80.9612 143.931 81.185 144.209 81.3415 144.562C81.498 144.916 81.5658 145.331 81.545 145.806C81.5241 146.282 81.4203 146.689 81.2334 147.027C81.0465 147.366 80.7993 147.623 80.4918 147.798C80.1842 147.972 79.8382 148.051 79.4538 148.034C79.0693 148.018 78.7316 147.909 78.4405 147.708C78.1494 147.507 77.9256 147.229 77.7691 146.876C77.6126 146.522 77.5447 146.107 77.5656 145.632ZM78.0938 145.655C78.0767 146.045 78.1276 146.378 78.2464 146.652C78.3637 146.926 78.5302 147.137 78.7457 147.284C78.9597 147.432 79.2032 147.512 79.4762 147.524C79.7491 147.536 79.9993 147.478 80.227 147.349C80.4531 147.221 80.6373 147.026 80.7797 146.763C80.9206 146.5 80.9996 146.173 81.0167 145.783C81.0338 145.393 80.9837 145.061 80.8664 144.786C80.7475 144.512 80.5811 144.301 80.367 144.154C80.1515 144.006 79.9073 143.926 79.6344 143.914C79.3615 143.902 79.1119 143.96 78.8858 144.089C78.6582 144.217 78.4739 144.412 78.333 144.675C78.1907 144.938 78.1109 145.265 78.0938 145.655Z" fill="white"/>
<path d="M73.1752 142.807L72.3786 147.249L69.7157 146.771L69.8013 146.294L71.9264 146.675L72.1956 145.174L70.2699 144.829L70.3555 144.352L72.2811 144.697L72.6374 142.711L73.1752 142.807Z" fill="white"/>
<path d="M65.2757 141.016L63.8942 145.311L61.302 144.477L61.4504 144.016L63.5225 144.682L63.9893 143.231L62.0514 142.608L62.1998 142.146L64.1377 142.77L64.6072 141.31L62.5015 140.633L62.6499 140.171L65.2757 141.016Z" fill="white"/>
<path d="M53.7658 140.072C53.6936 140.285 53.7158 140.488 53.8324 140.68C53.949 140.872 54.1306 141.027 54.3772 141.145C54.5575 141.231 54.7292 141.277 54.8922 141.283C55.0539 141.289 55.1969 141.258 55.3211 141.192C55.444 141.126 55.5365 141.027 55.5984 140.897C55.6502 140.789 55.6689 140.683 55.6545 140.58C55.6382 140.478 55.6012 140.381 55.5436 140.29C55.4855 140.201 55.4192 140.118 55.3449 140.042C55.2699 139.967 55.1993 139.902 55.1332 139.846L54.7727 139.537C54.6799 139.459 54.5802 139.364 54.4737 139.253C54.3658 139.141 54.2725 139.015 54.1936 138.873C54.1128 138.732 54.0645 138.577 54.0489 138.409C54.0332 138.24 54.0709 138.06 54.1619 137.869C54.2668 137.649 54.4193 137.478 54.6194 137.355C54.8181 137.232 55.0524 137.17 55.3224 137.171C55.5911 137.17 55.8819 137.245 56.1948 137.394C56.4865 137.533 56.7166 137.7 56.8852 137.896C57.0524 138.091 57.1569 138.302 57.1986 138.529C57.239 138.755 57.214 138.983 57.1237 139.213L56.6146 138.97C56.6747 138.81 56.6837 138.658 56.6416 138.515C56.5975 138.372 56.5175 138.242 56.4017 138.127C56.2839 138.012 56.1442 137.916 55.9824 137.839C55.7942 137.749 55.6106 137.699 55.4317 137.689C55.2522 137.68 55.0925 137.709 54.9525 137.778C54.8119 137.847 54.7062 137.956 54.6354 138.105C54.5709 138.24 54.5563 138.368 54.5914 138.489C54.6265 138.61 54.6931 138.726 54.7911 138.838C54.8891 138.95 55.0002 139.06 55.1244 139.168L55.5573 139.55C55.8319 139.793 56.0215 140.044 56.1263 140.302C56.231 140.56 56.2179 140.827 56.0871 141.101C55.9784 141.329 55.8219 141.498 55.6177 141.609C55.4115 141.721 55.1813 141.774 54.9269 141.768C54.6706 141.763 54.4126 141.699 54.1527 141.575C53.8902 141.45 53.6793 141.291 53.52 141.1C53.3601 140.91 53.259 140.705 53.2168 140.487C53.1733 140.268 53.1972 140.054 53.2885 139.845L53.7658 140.072Z" fill="white"/>
<path d="M46.3721 135.708C46.2722 135.909 46.2672 136.113 46.3571 136.319C46.4471 136.525 46.6064 136.703 46.8351 136.852C47.0024 136.961 47.1664 137.03 47.3271 137.058C47.4867 137.085 47.6324 137.074 47.7643 137.025C47.8951 136.975 47.9998 136.89 48.0785 136.77C48.1443 136.669 48.177 136.566 48.1764 136.462C48.1738 136.359 48.15 136.258 48.1051 136.161C48.0594 136.064 48.0047 135.973 47.9412 135.888C47.8768 135.804 47.8157 135.73 47.7576 135.665L47.4414 135.311C47.3599 135.221 47.2737 135.114 47.1829 134.99C47.0909 134.865 47.0153 134.727 46.956 134.576C46.8947 134.426 46.8675 134.266 46.8745 134.097C46.8814 133.927 46.9427 133.754 47.0584 133.577C47.1917 133.373 47.3656 133.224 47.5802 133.129C47.7936 133.033 48.0341 133.003 48.3017 133.039C48.568 133.075 48.8463 133.187 49.1365 133.377C49.407 133.553 49.6128 133.75 49.7537 133.967C49.8935 134.183 49.9689 134.405 49.98 134.635C49.99 134.865 49.9348 135.087 49.8147 135.304L49.3425 134.995C49.4233 134.845 49.4525 134.695 49.4299 134.547C49.4053 134.4 49.3433 134.261 49.2438 134.131C49.1424 134.002 49.0167 133.888 48.8667 133.79C48.692 133.676 48.5168 133.602 48.3409 133.568C48.1642 133.535 48.0019 133.543 47.8541 133.592C47.7055 133.642 47.5862 133.736 47.4962 133.874C47.4143 133.999 47.3827 134.124 47.4014 134.249C47.4201 134.373 47.4706 134.497 47.5528 134.621C47.635 134.745 47.7305 134.869 47.8392 134.992L48.2173 135.429C48.457 135.706 48.6116 135.98 48.6809 136.25C48.7503 136.52 48.7019 136.782 48.5356 137.037C48.3975 137.248 48.2198 137.395 48.0027 137.478C47.7835 137.561 47.5482 137.583 47.2969 137.543C47.0436 137.504 46.7964 137.406 46.5554 137.248C46.3119 137.089 46.124 136.904 45.9916 136.693C45.8584 136.484 45.7855 136.268 45.7728 136.045C45.7589 135.822 45.8111 135.613 45.9294 135.419L46.3721 135.708Z" fill="white"/>
<path d="M39.4674 131.749L42.416 128.334L42.8296 128.691L39.8809 132.106L39.4674 131.749Z" fill="white"/>
<path d="M33.8598 122.771C34.216 122.456 34.5808 122.247 34.9543 122.146C35.3277 122.045 35.6841 122.044 36.0235 122.144C36.3629 122.243 36.6601 122.437 36.9153 122.725C37.1704 123.013 37.3269 123.332 37.3849 123.681C37.4428 124.03 37.399 124.383 37.2535 124.742C37.1079 125.1 36.8571 125.437 36.5008 125.753C36.1446 126.068 35.7798 126.277 35.4064 126.378C35.033 126.479 34.6766 126.48 34.3372 126.38C33.9978 126.281 33.7005 126.087 33.4454 125.799C33.1902 125.511 33.0337 125.192 32.9758 124.843C32.9178 124.494 32.9616 124.141 33.1072 123.782C33.2527 123.424 33.5036 123.087 33.8598 122.771ZM34.2104 123.167C33.9179 123.426 33.7144 123.694 33.5999 123.97C33.4844 124.245 33.4485 124.511 33.4922 124.768C33.5349 125.025 33.6469 125.255 33.828 125.46C34.0091 125.664 34.2249 125.804 34.4753 125.878C34.7247 125.952 34.9934 125.948 35.2812 125.868C35.5681 125.786 35.8578 125.616 36.1503 125.357C36.4427 125.098 36.6467 124.831 36.7622 124.556C36.8767 124.28 36.9126 124.014 36.8699 123.757C36.8262 123.5 36.7138 123.269 36.5327 123.064C36.3515 122.86 36.1362 122.721 35.8868 122.647C35.6364 122.573 35.3678 122.576 35.0809 122.658C34.793 122.738 34.5028 122.908 34.2104 123.167Z" fill="white"/>
<path d="M27.1893 117.333L30.9355 114.818L31.2302 115.257L29.6592 119.273L29.6838 119.309L32.6251 117.335L32.9296 117.788L29.1834 120.303L28.8888 119.864L30.4621 115.836L30.4376 115.8L27.4889 117.779L27.1893 117.333Z" fill="white"/>
<path d="M28.5048 110.465L28.7578 110.979L23.9781 111.485L23.729 110.979L27.0451 107.5L27.2981 108.014L24.4862 110.901L24.5017 110.933L28.5048 110.465ZM26.8302 111.054L25.8103 108.982L26.2452 108.768L27.265 110.84L26.8302 111.054Z" fill="white"/>
<path d="M25.2297 102.84L20.9523 104.275L20.7784 103.757L24.5963 102.476L23.929 100.488L24.3885 100.333L25.2297 102.84Z" fill="white"/>
<path d="M15.9242 86.219L23.3324 85.8004L23.3573 86.2403L15.9491 86.6589L15.9242 86.219Z" fill="white"/>
</svg>
