<svg width="174" height="174" viewBox="0 0 174 174" fill="none" xmlns="http://www.w3.org/2000/svg">
<g clip-path="url(#clip0_2362_502)">
<path d="M82.0374 122.921L87.4106 109.481L88.0574 109.13L82.6842 122.57L82.0374 122.921ZM83.9778 121.868L89.351 108.427L91.9383 107.022L86.5651 120.463L83.9778 121.868ZM87.212 120.112L92.5851 106.671L93.232 106.32L87.8588 119.761L87.212 120.112ZM84.3878 127.05C83.9275 127.525 83.4817 127.88 83.0505 128.115C82.648 128.333 82.4122 128.36 82.3429 128.196C82.2797 128.016 82.3635 127.637 82.5942 127.06C82.6367 126.954 82.7106 126.783 82.8161 126.547L83.4123 125.225L82.593 125.67L82.7934 125.169L83.6342 124.712L84.1087 123.652L84.7795 123.198L84.8658 123.152L84.8476 123.197C84.8006 123.258 84.7608 123.316 84.7282 123.369C84.6813 123.43 84.6426 123.499 84.6123 123.575L84.2164 124.396L85.4238 123.74L85.2234 124.242L83.9729 124.92L83.38 126.277C83.2746 126.513 83.2097 126.661 83.1854 126.721C83.0033 127.177 82.9291 127.461 82.963 127.574C83.0029 127.671 83.1306 127.661 83.3462 127.544C83.5043 127.458 83.6674 127.346 83.8354 127.207C83.9891 127.076 84.1795 126.895 84.4066 126.665L84.3878 127.05ZM89.1541 119.057L94.5273 105.617L95.1741 105.265L89.8009 118.706L89.1541 119.057ZM91.0946 118.004L96.4678 104.563L97.1146 104.212L91.7414 117.653L91.0946 118.004ZM93.035 116.95L98.4082 103.509L100.996 102.105L95.6223 115.545L93.035 116.95ZM92.081 120.054C92.4691 119.844 92.7349 119.812 92.8782 119.96L92.4374 120.557L92.3794 120.659L92.3329 120.649C92.3428 120.596 92.3467 120.558 92.3444 120.536C92.3339 120.506 92.3018 120.487 92.2482 120.481C92.1552 120.46 92.0153 120.5 91.8285 120.602C91.6416 120.703 91.4407 120.854 91.2257 121.054C91.0168 121.239 90.8195 121.465 90.6339 121.732C90.4339 122.007 90.2732 122.296 90.1518 122.6L89.3321 124.65L88.75 124.967L90.2982 121.094L90.9019 120.766L90.598 121.484C90.7958 121.186 91.0328 120.903 91.3091 120.634C91.5794 120.38 91.8367 120.187 92.081 120.054ZM96.2708 115.193L101.644 101.753L102.291 101.401L96.9177 114.842L96.2708 115.193ZM98.2113 114.14L103.584 100.699L104.231 100.348L98.8581 113.789L98.2113 114.14ZM99.5049 113.437L104.878 99.9966L106.172 99.2942L100.799 112.735L99.5049 113.437ZM98.4647 116.588C98.9822 116.307 99.3198 116.237 99.4775 116.377C99.6353 116.518 99.5745 116.937 99.2952 117.636L98.4756 119.686L97.8503 120.025L98.0871 119.433C97.6893 120.006 97.1814 120.46 96.5634 120.796C96.1609 121.014 95.8841 121.087 95.7331 121.014C95.582 120.942 95.5702 120.746 95.6977 120.427C95.807 120.154 95.9874 119.872 96.2388 119.581C96.4758 119.297 96.7624 119.017 97.0984 118.739C97.414 118.485 97.7443 118.264 98.0893 118.076C98.3911 117.913 98.6582 117.779 98.8904 117.677C99.0316 117.267 99.0453 117.022 98.9312 116.941C98.8172 116.861 98.5806 116.918 98.2212 117.113C98.0344 117.214 97.8467 117.346 97.6582 117.508C97.4554 117.677 97.2548 117.87 97.0564 118.084L96.9309 117.849C97.4216 117.297 97.9329 116.877 98.4647 116.588ZM96.8102 120.305C97.2126 120.086 97.5805 119.785 97.9137 119.402C98.2408 119.035 98.5026 118.619 98.6991 118.156C98.473 118.243 98.2234 118.36 97.9503 118.509C97.5478 118.727 97.194 118.979 96.889 119.263C96.6043 119.525 96.4043 119.8 96.289 120.088C96.119 120.514 96.2927 120.586 96.8102 120.305ZM103.388 111.329L108.761 97.8885L109.408 97.5373L104.034 110.978L103.388 111.329ZM106.622 109.573L111.995 96.1325L112.642 95.7813L107.268 109.222L106.622 109.573ZM107.915 108.871L113.288 95.4301L114.582 94.7277L109.209 108.168L107.915 108.871ZM104.284 116.604C103.924 116.799 103.642 116.887 103.435 116.868C103.235 116.834 103.117 116.708 103.08 116.49C103.043 116.272 103.104 115.966 103.262 115.571C103.413 115.192 103.629 114.807 103.909 114.417C104.188 114.028 104.501 113.668 104.847 113.337C105.187 113.022 105.536 112.767 105.896 112.571C106.183 112.415 106.425 112.332 106.621 112.321C106.802 112.317 106.926 112.386 106.993 112.528L106.472 113.115L106.411 113.184L106.386 113.162C106.404 113.116 106.408 113.078 106.397 113.048C106.395 113.026 106.377 113 106.344 112.97C106.272 112.926 106.18 112.917 106.069 112.941C105.949 112.959 105.803 113.014 105.631 113.108C105.415 113.225 105.197 113.391 104.976 113.606C104.74 113.829 104.527 114.082 104.335 114.364C104.135 114.639 103.977 114.921 103.862 115.21C103.747 115.498 103.698 115.733 103.716 115.913C103.74 116.079 103.821 116.171 103.959 116.191C104.106 116.219 104.294 116.17 104.524 116.045C104.898 115.842 105.285 115.507 105.685 115.04L105.845 115.275C105.322 115.88 104.801 116.323 104.284 116.604ZM110.504 107.465L115.877 94.0244L116.524 93.6732L111.151 107.114L110.504 107.465ZM112.445 106.412L117.818 92.9708L120.405 91.5661L115.032 105.007L112.445 106.412ZM115.679 104.656L121.052 91.2149L121.699 90.8637L116.326 104.304L115.679 104.656ZM112.855 111.593C112.394 112.069 111.949 112.424 111.517 112.658C111.115 112.877 110.879 112.904 110.81 112.739C110.747 112.56 110.83 112.181 111.061 111.604C111.104 111.498 111.178 111.327 111.283 111.091L111.879 109.769L111.06 110.213L111.26 109.712L112.101 109.256L112.576 108.195L113.246 107.742L113.333 107.695L113.314 107.741C113.268 107.802 113.228 107.859 113.195 107.913C113.148 107.974 113.11 108.042 113.079 108.118L112.683 108.94L113.891 108.284L113.69 108.785L112.44 109.464L111.847 110.821C111.741 111.056 111.677 111.204 111.652 111.265C111.47 111.721 111.396 112.005 111.43 112.117C111.47 112.214 111.598 112.205 111.813 112.088C111.971 112.002 112.134 111.889 112.302 111.751C112.456 111.62 112.646 111.439 112.873 111.209L112.855 111.593ZM117.621 103.601L122.994 90.1604L123.641 89.8092L118.268 103.25L117.621 103.601ZM120.208 102.196L125.581 88.7556L128.169 87.3508L122.796 100.792L120.208 102.196ZM123.442 100.44L128.816 86.9996L129.462 86.6484L124.089 100.089L123.442 100.44ZM118.246 109.005C117.915 109.184 117.654 109.261 117.462 109.234C117.285 109.2 117.185 109.07 117.162 108.844C117.126 108.626 117.186 108.32 117.344 107.925C117.502 107.53 117.721 107.138 118 106.748C118.265 106.367 118.554 106.026 118.865 105.726C119.196 105.403 119.527 105.152 119.858 104.973C120.189 104.793 120.44 104.728 120.611 104.778C120.803 104.804 120.91 104.931 120.933 105.156C120.955 105.382 120.887 105.692 120.729 106.087C120.571 106.482 120.36 106.87 120.095 107.252C119.83 107.634 119.534 107.979 119.209 108.286C118.898 108.586 118.577 108.825 118.246 109.005ZM118.446 108.504C118.648 108.395 118.862 108.225 119.089 107.994C119.296 107.787 119.495 107.542 119.687 107.26C119.87 106.97 120.019 106.681 120.135 106.392C120.311 105.952 120.353 105.649 120.261 105.485C120.169 105.321 119.965 105.325 119.649 105.497C119.332 105.668 119.019 105.946 118.708 106.328C118.398 106.711 118.155 107.122 117.979 107.563C117.863 107.851 117.8 108.094 117.789 108.29C117.799 108.463 117.858 108.567 117.968 108.603C118.071 108.654 118.231 108.621 118.446 108.504Z" fill="black"/>
<g clip-path="url(#clip1_2362_502)">
<path d="M46.1012 88.9521L51.5372 75.5367L52.068 76.0465L46.632 89.462L46.1012 88.9521ZM47.6936 90.4817L53.1296 77.0663L53.6604 77.5762L48.2244 90.9916L47.6936 90.4817ZM50.3476 93.0311L55.7836 79.6156L56.8452 80.6354L51.4092 94.0508L50.3476 93.0311ZM46.1508 99.2028C45.9739 99.0328 45.8303 98.8211 45.7199 98.5677C45.6096 98.3143 45.5382 98.0457 45.5057 97.7618L45.1261 98.0921L44.8253 97.8032L47.101 92.1869L47.6495 92.7137L47.6311 92.7592C47.5891 92.782 47.556 92.8029 47.532 92.8219C47.5017 92.8561 47.4682 92.9186 47.4313 93.0096L46.6298 94.9878C46.8219 94.8775 47.0251 94.8411 47.2394 94.8784C47.4537 94.9158 47.6434 95.0138 47.8085 95.1724C48.186 95.535 48.4192 95.9907 48.5082 96.5394C48.591 97.1034 48.5035 97.7036 48.2455 98.3403C48.0674 98.7799 47.8548 99.1022 47.6079 99.3073C47.3609 99.5123 47.1065 99.5943 46.8446 99.5533C46.5944 99.5236 46.3632 99.4067 46.1508 99.2028ZM46.3189 98.6061C46.5548 98.8327 46.7986 98.8984 47.0502 98.8031C47.2957 98.723 47.5228 98.4253 47.7317 97.9099C47.9344 97.4097 48.0141 96.9703 47.9708 96.5918C47.9219 96.1868 47.7736 95.8653 47.5259 95.6274C47.2781 95.3895 47.0193 95.3408 46.7492 95.4816C46.4853 95.6071 46.2612 95.8973 46.077 96.3521C45.6839 97.3222 45.7645 98.0736 46.3189 98.6061ZM51.9414 94.562L57.3774 81.1466L57.9082 81.6564L52.4722 95.0719L51.9414 94.562ZM53.003 95.5818L58.439 82.1663L59.5006 83.1861L54.0646 96.6015L53.003 95.5818ZM55.1262 97.6213L60.5622 84.2058L61.093 84.7157L55.657 98.1311L55.1262 97.6213ZM52.0264 104.847C51.5782 104.416 51.295 103.902 51.1767 103.304C51.0467 102.695 51.1107 102.072 51.3687 101.435C51.5406 101.011 51.756 100.702 52.0147 100.508C52.2555 100.318 52.5128 100.249 52.7866 100.302C53.0547 100.327 53.3184 100.465 53.5779 100.714C53.9436 101.066 54.1771 101.5 54.2783 102.019C54.3735 102.552 54.2982 103.122 54.0525 103.729C54.0279 103.789 53.9911 103.88 53.9419 104.002L51.801 101.945C51.6224 102.426 51.5783 102.879 51.6688 103.303C51.7592 103.727 51.9519 104.08 52.2468 104.363C52.5653 104.669 52.8831 104.775 53.2004 104.679L53.3276 105.275C52.9084 105.42 52.4746 105.277 52.0264 104.847ZM53.6577 103.065C53.8051 102.701 53.851 102.345 53.7955 101.997C53.7399 101.649 53.5942 101.362 53.3583 101.135C53.146 100.931 52.9173 100.848 52.6723 100.887C52.4273 100.925 52.2073 101.125 52.0122 101.485L53.6577 103.065ZM57.7816 100.172L63.2176 86.7565L64.2792 87.7762L58.8432 101.192L57.7816 100.172ZM59.374 101.702L64.81 88.2861L65.8716 89.3058L60.4356 102.721L59.374 101.702ZM61.4972 103.741L66.9332 90.3256L67.9948 91.3453L62.5588 104.761L61.4972 103.741ZM63.6218 105.782L69.0578 92.3664L69.5886 92.8763L64.1526 106.292L63.6218 105.782ZM65.2142 107.311L70.6502 93.896L71.181 94.4059L65.745 107.821L65.2142 107.311ZM66.2758 108.331L71.7118 94.9157L72.7734 95.9355L67.3374 109.351L66.2758 108.331ZM65.1699 111.849C65.5945 112.257 65.8605 112.713 65.9679 113.216C66.0753 113.719 65.9878 114.32 65.7052 115.017L64.876 117.063L64.3629 116.57L64.6025 115.979C64.2413 116.264 63.807 116.163 63.2998 115.676C62.9696 115.358 62.75 115.011 62.6411 114.632C62.5322 114.254 62.5423 113.905 62.6713 113.587C62.7818 113.314 62.9478 113.147 63.1692 113.086C63.3788 113.014 63.6261 113.03 63.9112 113.136C64.1783 113.245 64.4534 113.435 64.7365 113.707C64.9842 113.945 65.2022 114.176 65.3904 114.399C65.5388 113.951 65.5732 113.563 65.4936 113.234C65.4139 112.905 65.2267 112.599 64.9318 112.315C64.7784 112.168 64.6215 112.07 64.4611 112.021C64.2888 111.961 64.1161 111.943 63.9428 111.966L63.8694 111.358C64.2999 111.266 64.7334 111.43 65.1699 111.849ZM63.5372 115.272C63.8675 115.589 64.1792 115.709 64.4723 115.633C64.7593 115.572 65.0009 115.319 65.1969 114.876C65.0148 114.638 64.8117 114.411 64.5876 114.196C64.2573 113.879 63.9612 113.7 63.6993 113.659C63.4553 113.614 63.2749 113.735 63.1582 114.023C62.9862 114.448 63.1125 114.864 63.5372 115.272ZM69.462 111.392L74.8979 97.9763L75.4287 98.4862L69.9928 111.902L69.462 111.392ZM71.0544 112.921L76.4903 99.5059L77.0211 100.016L71.5852 113.431L71.0544 112.921ZM73.7084 115.471L79.1443 102.055L80.2059 103.075L74.77 116.49L73.7084 115.471ZM69.5116 121.642C69.3346 121.472 69.191 121.261 69.0807 121.007C68.9703 120.754 68.8989 120.485 68.8665 120.201L68.4868 120.532L68.1861 120.243L70.4618 114.626L71.0103 115.153L70.9918 115.199C70.9498 115.222 70.9168 115.243 70.8927 115.262C70.8625 115.296 70.8289 115.358 70.7921 115.449L69.9905 117.427C70.1827 117.317 70.3859 117.281 70.6002 117.318C70.8144 117.355 71.0041 117.453 71.1693 117.612C71.5467 117.975 71.78 118.43 71.8689 118.979C71.9518 119.543 71.8642 120.143 71.6062 120.78C71.4281 121.22 71.2156 121.542 70.9686 121.747C70.7217 121.952 70.4672 122.034 70.2053 121.993C69.9551 121.963 69.7239 121.846 69.5116 121.642ZM69.6796 121.046C69.9155 121.272 70.1593 121.338 70.4109 121.243C70.6564 121.163 70.8836 120.865 71.0924 120.35C71.2951 119.849 71.3748 119.41 71.3315 119.031C71.2826 118.626 71.1343 118.305 70.8866 118.067C70.6389 117.829 70.38 117.78 70.11 117.921C69.8461 118.047 69.622 118.337 69.4377 118.792C69.0446 119.762 69.1252 120.513 69.6796 121.046ZM75.3022 117.002L80.7381 103.586L81.2689 104.096L75.833 117.512L75.3022 117.002ZM76.3638 118.021L81.7997 104.606L83.9229 106.645L78.487 120.061L76.3638 118.021ZM79.5486 121.081L84.9845 107.665L85.5153 108.175L80.0794 121.59L79.5486 121.081ZM75.2456 127.15C74.7384 126.663 74.3967 126.051 74.2205 125.313L74.7162 124.999L74.7884 124.942L74.8231 125.039C74.8169 125.054 74.8077 125.077 74.7954 125.107C74.7888 125.164 74.7853 125.213 74.7848 125.255C74.7899 125.323 74.7951 125.391 74.8003 125.459C74.8573 125.682 74.9353 125.894 75.0343 126.095C75.1395 126.28 75.2865 126.463 75.4752 126.644C75.7111 126.871 75.9214 126.999 76.1059 127.029C76.2786 127.048 76.4049 126.958 76.4848 126.761C76.5524 126.594 76.5546 126.407 76.4914 126.199C76.4282 125.991 76.2707 125.692 76.0188 125.303C75.3806 124.29 75.1659 123.525 75.3748 123.01C75.4976 122.707 75.6931 122.568 75.9612 122.594C76.2236 122.593 76.5317 122.763 76.8856 123.103C77.1569 123.364 77.3654 123.638 77.5112 123.925C77.663 124.197 77.7726 124.513 77.84 124.873L77.3911 125.01L77.328 125.044L77.3111 124.965C77.3356 124.904 77.3423 124.847 77.331 124.794C77.3376 124.737 77.3265 124.664 77.2978 124.573C77.2346 124.365 77.1533 124.181 77.0537 124.023C76.9486 123.837 76.837 123.688 76.719 123.575C76.5303 123.393 76.3526 123.286 76.186 123.252C76.0374 123.215 75.9323 123.272 75.8709 123.423C75.8095 123.575 75.8221 123.766 75.9089 123.997C75.9777 124.231 76.1468 124.562 76.4161 124.99C76.7322 125.504 76.9331 125.918 77.0188 126.232C77.1164 126.557 77.1069 126.864 76.9902 127.152C76.8489 127.501 76.626 127.687 76.3216 127.71C76.0171 127.733 75.6585 127.547 75.2456 127.15Z" fill="black"/>
</g>
<path d="M52.103 74.8954L52.7651 74.5579L88.1856 108.818L87.538 109.183L52.103 74.8954Z" fill="black"/>
<path d="M57.2784 72.0924L57.9404 71.7419L93.361 106.015L92.7134 106.38L57.2784 72.0924Z" fill="black"/>
<path d="M59.2255 71.0279L59.8875 70.6904L95.3081 104.964L94.6605 105.315L59.2255 71.0279Z" fill="black"/>
<path d="M61.1637 69.9886L61.8257 69.6251L97.2462 103.898L96.5986 104.276L61.1637 69.9886Z" fill="black"/>
<path d="M66.3171 67.1718L66.9791 66.8343L102.4 101.108L101.752 101.459L66.3171 67.1718Z" fill="black"/>
<path d="M68.2718 66.1203L68.9338 65.7828L104.354 100.056L103.707 100.407L68.2718 66.1203Z" fill="black"/>
<path d="M68.2718 66.1203L68.9338 65.7828L104.354 100.056L103.707 100.407L68.2718 66.1203Z" fill="black"/>
<path d="M73.4381 63.3165L74.1001 62.979L109.534 97.2393L108.873 97.6036L73.4381 63.3165Z" fill="black"/>
<path d="M76.7223 61.577L77.3454 61.2006L112.766 95.4739L112.157 95.8642L76.7223 61.577Z" fill="black"/>
<path d="M80.57 59.4741L81.2321 59.0977L116.653 93.371L116.005 93.7613L80.57 59.4741Z" fill="black"/>
<path d="M85.7699 56.6573L86.393 56.2938L121.814 90.5672L121.205 90.9445L85.7699 56.6573Z" fill="black"/>
<path d="M82.4652 58.4486L85.0874 57.0337L120.508 91.3071L117.9 92.7358L82.4652 58.4486Z" fill="black"/>
<path d="M85.7699 56.6573L86.393 56.2938L121.814 90.5672L121.205 90.9445L85.7699 56.6573Z" fill="black"/>
<path d="M63.1108 68.9112L65.707 67.5222L101.128 101.796L98.5457 103.198L63.1108 68.9112Z" fill="black"/>
<path d="M54.0502 73.8439L56.7632 72.403L92.0539 106.715L89.4851 108.131L54.0502 73.8439Z" fill="black"/>
<path d="M69.5363 65.4323L70.8823 64.7452L106.29 98.9926L104.971 99.7325L69.5363 65.4323Z" fill="black"/>
<path d="M77.9868 60.8501L79.2809 60.15L114.701 94.4233L113.422 95.1373L77.9868 60.8501Z" fill="black"/>
<path d="M87.6911 55.6058L88.3531 55.2683L123.774 89.5417L123.126 89.8931L87.6911 55.6058Z" fill="black"/>
<path d="M87.6911 55.6058L88.3531 55.2683L123.774 89.5417L123.126 89.8931L87.6911 55.6058Z" fill="black"/>
<path d="M90.5725 54.2751L93.0542 53.0987L128.248 87.1479L125.766 88.5681L90.5725 54.2751Z" fill="black"/>
<path d="M90.5725 54.2751L93.0542 53.0987L128.248 87.1479L125.766 88.5681L90.5725 54.2751Z" fill="black"/>
<path d="M93.7774 52.8094L94.5006 52.3755L129.604 86.4667L128.957 86.8181L93.7774 52.8094Z" fill="black"/>
<path d="M93.7774 52.8094L94.5006 52.3755L129.604 86.4667L128.957 86.8181L93.7774 52.8094Z" fill="black"/>
</g>
<defs>
<clipPath id="clip0_2362_502">
<rect width="86.3018" height="86.3018" fill="black" transform="translate(43.3799 50.324)"/>
</clipPath>
<clipPath id="clip1_2362_502">
<rect width="48.6782" height="29.4747" fill="black" transform="matrix(0.721182 0.692746 -0.375542 0.926805 52.4419 73.3042)"/>
</clipPath>
</defs>
</svg>
