<svg width="155" height="154" viewBox="0 0 155 154" fill="none" xmlns="http://www.w3.org/2000/svg">
<path d="M74.2467 141.58L73.9299 146.313L72.2751 146.202C71.9453 146.18 71.6772 146.105 71.4707 145.977C71.264 145.85 71.1147 145.688 71.0227 145.489C70.9306 145.293 70.8923 145.079 70.9078 144.848C70.9214 144.645 70.9689 144.479 71.0502 144.351C71.1299 144.224 71.2309 144.125 71.3532 144.056C71.4739 143.987 71.6033 143.938 71.7413 143.91L71.7444 143.864C71.6002 143.845 71.458 143.784 71.3178 143.682C71.1776 143.58 71.064 143.439 70.977 143.26C70.8899 143.081 70.8547 142.866 70.8714 142.617C70.8873 142.38 70.9555 142.17 71.0761 141.988C71.1966 141.805 71.3769 141.666 71.617 141.571C71.8571 141.476 72.1636 141.44 72.5364 141.465L74.2467 141.58ZM73.6395 142.05L72.5024 141.974C72.128 141.949 71.8574 142.003 71.6905 142.138C71.522 142.274 71.4308 142.445 71.4169 142.653C71.4062 142.814 71.4371 142.964 71.5097 143.105C71.5821 143.248 71.6912 143.365 71.8367 143.457C71.9821 143.55 72.1581 143.604 72.3645 143.618L73.5293 143.696L73.6395 142.05ZM73.4959 144.195L72.4328 144.124C72.2602 144.112 72.1023 144.136 71.9591 144.194C71.8144 144.252 71.697 144.341 71.6071 144.458C71.5157 144.576 71.4644 144.718 71.4532 144.884C71.4393 145.093 71.4999 145.274 71.6351 145.428C71.7701 145.584 71.9948 145.673 72.3091 145.694L73.3907 145.766L73.4959 144.195Z" fill="white"/>
<path d="M65.8635 140.624L64.9186 145.273L62.113 144.702L62.2145 144.203L64.4571 144.659L64.7764 143.088L62.679 142.662L62.7805 142.162L64.8779 142.589L65.199 141.009L62.92 140.546L63.0215 140.046L65.8635 140.624Z" fill="white"/>
<path d="M57.9282 138.673L56.3721 143.155L55.8294 142.966L56.5224 140.971L54.1329 140.141L53.44 142.136L52.8973 141.948L54.4534 137.467L54.9961 137.655L54.3001 139.659L56.6895 140.489L57.3855 138.485L57.9282 138.673Z" fill="white"/>
<path d="M45.5202 138.64L47.6597 134.406L48.1724 134.665L46.0329 138.899L45.5202 138.64Z" fill="white"/>
<path d="M37.8218 132.201C37.7756 132.358 37.7518 132.512 37.7507 132.661C37.7474 132.81 37.7679 132.953 37.8123 133.091C37.8554 133.227 37.9231 133.355 38.0153 133.474C38.1074 133.594 38.2242 133.702 38.3655 133.799C38.5972 133.958 38.849 134.043 39.1208 134.054C39.3927 134.064 39.6646 133.991 39.9366 133.835C40.2085 133.679 40.4607 133.432 40.6932 133.093C40.9257 132.755 41.0652 132.43 41.1119 132.119C41.1585 131.808 41.1261 131.527 41.0148 131.274C40.9034 131.022 40.7268 130.812 40.4849 130.646C40.2608 130.493 40.0307 130.405 39.7945 130.383C39.5563 130.362 39.3291 130.406 39.113 130.517C38.8947 130.627 38.7035 130.802 38.5392 131.041L38.415 130.911L39.5914 131.719L39.303 132.139L37.8134 131.116L38.1018 130.696C38.3229 130.374 38.5839 130.141 38.8849 129.998C39.1845 129.853 39.4997 129.798 39.8303 129.832C40.1588 129.866 40.4784 129.99 40.789 130.203C41.1353 130.441 41.3836 130.731 41.534 131.074C41.6832 131.416 41.7278 131.788 41.668 132.189C41.6068 132.589 41.4347 132.995 41.1515 133.408C40.9392 133.717 40.7068 133.967 40.4545 134.157C40.2001 134.348 39.9366 134.478 39.6641 134.547C39.3916 134.617 39.1191 134.626 38.8465 134.576C38.5739 134.526 38.3122 134.414 38.0614 134.242C37.8551 134.101 37.6843 133.938 37.5489 133.753C37.4113 133.568 37.3114 133.372 37.2491 133.162C37.1847 132.953 37.1592 132.738 37.1725 132.517C37.1849 132.297 37.2384 132.08 37.3329 131.865L37.8218 132.201Z" fill="white"/>
<path d="M35.406 126.185L32.2239 129.703L31.7979 129.318L33.2149 127.751L31.339 126.054L29.9219 127.621L29.4959 127.236L32.678 123.717L33.104 124.103L31.6808 125.676L33.5568 127.373L34.98 125.799L35.406 126.185Z" fill="white"/>
<path d="M28.6163 119.427L24.9936 122.49L24.6227 122.052L27.8562 119.318L26.4325 117.634L26.8217 117.305L28.6163 119.427Z" fill="white"/>
<path d="M18.5705 113.799L22.569 111.246L22.8781 111.73L18.8796 114.283L18.5705 113.799Z" fill="white"/>
<path d="M15.2275 104.335C15.1075 104.447 15.009 104.567 14.932 104.695C14.853 104.822 14.7976 104.955 14.7659 105.096C14.7335 105.235 14.7265 105.38 14.7449 105.53C14.7634 105.68 14.8087 105.832 14.8808 105.988C14.9991 106.243 15.1725 106.444 15.401 106.591C15.6296 106.739 15.9006 106.815 16.2141 106.819C16.5277 106.824 16.8707 106.739 17.2433 106.566C17.6159 106.394 17.9015 106.185 18.1 105.942C18.2985 105.698 18.4141 105.439 18.447 105.165C18.4799 104.891 18.4346 104.621 18.3111 104.355C18.1967 104.108 18.0434 103.916 17.8512 103.777C17.657 103.637 17.4389 103.56 17.1968 103.544C16.9527 103.528 16.699 103.581 16.4356 103.703L16.3952 103.528L16.9958 104.822L16.5335 105.037L15.773 103.398L16.2353 103.183C16.5896 103.019 16.9329 102.952 17.2651 102.981C17.5965 103.01 17.8959 103.123 18.163 103.321C18.4281 103.518 18.6399 103.787 18.7985 104.129C18.9753 104.51 19.041 104.886 18.9956 105.258C18.9496 105.628 18.7987 105.971 18.5428 106.285C18.2864 106.598 17.9312 106.86 17.4774 107.071C17.137 107.229 16.8098 107.325 16.4958 107.36C16.1797 107.395 15.8868 107.372 15.6169 107.293C15.3469 107.214 15.1076 107.083 14.8987 106.901C14.6899 106.719 14.5214 106.49 14.3933 106.214C14.288 105.987 14.2242 105.76 14.2018 105.532C14.1774 105.303 14.1918 105.083 14.245 104.871C14.2961 104.658 14.3837 104.46 14.5079 104.276C14.6307 104.093 14.7874 103.934 14.9779 103.798L15.2275 104.335Z" fill="white"/>
<path d="M16.2147 97.928L11.6839 99.3335L11.5137 98.7848L13.5313 98.1589L12.7819 95.7431L10.7643 96.3689L10.5941 95.8203L15.1249 94.4148L15.2951 94.9635L13.2686 95.5921L14.018 98.008L16.0445 97.3793L16.2147 97.928Z" fill="white"/>
<path d="M9.727 89.8681L9.22451 89.9529L8.63273 86.4446L9.13522 86.3598L9.38334 87.8308L13.5586 87.1265L13.6542 87.6929L9.47889 88.3972L9.727 89.8681Z" fill="white"/>
<path d="M12.8507 80.5605L8.10951 80.719L8.01384 77.8576L8.52315 77.8406L8.59962 80.1279L10.2016 80.0743L10.1301 77.9352L10.6394 77.9182L10.7109 80.0573L12.3222 80.0034L12.2445 77.6791L12.7538 77.6621L12.8507 80.5605Z" fill="white"/>
<path d="M13.0625 70.8634L12.916 72.3199L8.19595 71.8451L8.34898 70.324C8.39504 69.8661 8.52895 69.4838 8.7507 69.1771C8.97092 68.8702 9.26569 68.6477 9.63501 68.5095C10.0028 68.3711 10.431 68.3265 10.9196 68.3756C11.4112 68.4251 11.8257 68.5552 12.163 68.7661C12.4988 68.9768 12.7451 69.2592 12.9019 69.6133C13.0572 69.9673 13.1107 70.384 13.0625 70.8634ZM12.4665 71.6974L12.5518 70.8492C12.591 70.459 12.5483 70.128 12.4235 69.8562C12.2988 69.5845 12.1037 69.3716 11.8382 69.2177C11.5728 69.0637 11.248 68.9674 10.8639 68.9287C10.4829 68.8904 10.1486 68.9196 9.86104 69.0164C9.57195 69.1131 9.34122 69.2776 9.16883 69.5102C8.99491 69.7426 8.8894 70.0431 8.8523 70.4119L8.76049 71.3245L12.4665 71.6974Z" fill="white"/>
<path d="M11.3155 51.3329L18.5956 54.1368L18.4291 54.5691L11.149 51.7652L11.3155 51.3329Z" fill="white"/>
<path d="M24.665 39.6438L20.8458 36.8298L21.8296 35.4946C22.0256 35.2285 22.2333 35.043 22.4526 34.938C22.6707 34.832 22.888 34.7936 23.1044 34.8226C23.3196 34.8508 23.5205 34.9335 23.7069 35.0709C23.871 35.1919 23.985 35.3209 24.0489 35.4581C24.1137 35.5941 24.1423 35.7322 24.1349 35.8725C24.1283 36.0115 24.0997 36.1468 24.0489 36.2781L24.0862 36.3056C24.1798 36.1943 24.3074 36.107 24.469 36.0439C24.6306 35.9807 24.8103 35.9606 25.0082 35.9837C25.206 36.0067 25.4057 36.0924 25.6071 36.2408C25.7985 36.3819 25.9387 36.5522 26.0275 36.7519C26.1162 36.9516 26.1362 37.1783 26.0874 37.432C26.0386 37.6857 25.9034 37.9629 25.6817 38.2638L24.665 39.6438ZM24.5954 38.879L25.2715 37.9615C25.494 37.6594 25.5936 37.4019 25.5702 37.189C25.5464 36.9739 25.4506 36.8046 25.2828 36.6809C25.1535 36.5856 25.0099 36.5306 24.8519 36.5159C24.6928 36.5003 24.5353 36.5291 24.3797 36.6024C24.2228 36.6748 24.0829 36.7943 23.9602 36.9608L23.2677 37.9007L24.5954 38.879ZM22.8649 37.6039L23.4969 36.7461C23.5995 36.6069 23.6647 36.4612 23.6924 36.309C23.7211 36.1555 23.71 36.0092 23.6591 35.8701C23.6091 35.7296 23.5169 35.61 23.3827 35.511C23.2148 35.3874 23.0294 35.3409 22.8265 35.3717C22.6223 35.4015 22.4267 35.5433 22.2399 35.7969L21.5968 36.6696L22.8649 37.6039Z" fill="white"/>
<path d="M29.982 33.0921L26.572 29.7942L28.5623 27.7362L28.9286 28.0905L27.3376 29.7355L28.4898 30.8498L29.9777 29.3114L30.3441 29.6656L28.8561 31.2041L30.015 32.3249L31.6317 30.6532L31.9981 31.0074L29.982 33.0921Z" fill="white"/>
<path d="M37.0997 26.5031L35.9508 27.4104L33.0108 23.6874L34.2106 22.7399C34.5717 22.4547 34.9396 22.2852 35.3143 22.2314C35.688 22.1763 36.0528 22.2335 36.409 22.4029C36.7641 22.5711 37.0938 22.8478 37.3982 23.2332C37.7044 23.621 37.899 24.0095 37.9819 24.3985C38.0639 24.7864 38.0321 25.1597 37.8866 25.5187C37.7401 25.8764 37.4778 26.2045 37.0997 26.5031ZM36.0858 26.6544L36.7548 26.1261C37.0626 25.883 37.2708 25.6222 37.3794 25.3436C37.488 25.065 37.5054 24.7768 37.4316 24.479C37.3577 24.1811 37.2012 23.8807 36.9619 23.5778C36.7246 23.2772 36.4711 23.0572 36.2017 22.9178C35.9312 22.7772 35.6525 22.7258 35.3655 22.7635C35.0776 22.8 34.7882 22.9331 34.4973 23.1628L33.7774 23.7313L36.0858 26.6544Z" fill="white"/>
<path d="M42.6017 17.0134L45.0192 21.0951L44.525 21.3878L42.1074 17.3062L42.6017 17.0134Z" fill="white"/>
<path d="M50.927 18.0583L49.0751 13.6909L51.6938 12.5804L51.8928 13.0496L49.8029 13.9358L50.4287 15.4115L52.3223 14.6085L52.5213 15.0777L50.6276 15.8806L51.4559 17.834L50.927 18.0583Z" fill="white"/>
<path d="M59.0232 15.0581L57.7699 10.4828L60.5133 9.73134L60.648 10.2228L58.4586 10.8226L58.8821 12.3685L60.8659 11.8251L61.0005 12.3166L59.0167 12.86L59.5773 14.9064L59.0232 15.0581Z" fill="white"/>
<path d="M67.4116 13.1672L66.7793 8.46569L69.6168 8.08409L69.6847 8.58914L67.4166 8.89417L67.6302 10.4828L69.7514 10.1975L69.8193 10.7025L67.6981 10.9878L67.913 12.5856L70.2179 12.2756L70.2858 12.7807L67.4116 13.1672Z" fill="white"/>
<path d="M76.3588 12.1831V7.43924H77.9617C78.3323 7.43924 78.6365 7.50256 78.8743 7.62918C79.1121 7.75427 79.2882 7.92645 79.4025 8.14573C79.5167 8.36501 79.5739 8.6144 79.5739 8.8939C79.5739 9.17341 79.5167 9.42126 79.4025 9.63745C79.2882 9.85364 79.1129 10.0235 78.8766 10.147C78.6404 10.269 78.3385 10.33 77.971 10.33H76.6738V9.81117H77.9524C78.2057 9.81117 78.4095 9.77411 78.5639 9.69999C78.7199 9.62587 78.8326 9.52086 78.9021 9.38497C78.9732 9.24753 79.0087 9.08384 79.0087 8.8939C79.0087 8.70396 78.9732 8.53796 78.9021 8.39589C78.8311 8.25382 78.7176 8.14418 78.5616 8.06697C78.4057 7.98822 78.1995 7.94884 77.9432 7.94884H76.9332V12.1831H76.3588ZM78.5917 10.0521L79.7592 12.1831H79.0921L77.9432 10.0521H78.5917Z" fill="white"/>
<path d="M84.6375 12.8017L85.2698 8.10021L88.1073 8.48181L88.0394 8.98686L85.7712 8.68182L85.5576 10.2704L87.6788 10.5557L87.6109 11.0607L85.4897 10.7755L85.2748 12.3733L87.5796 12.6832L87.5117 13.1883L84.6375 12.8017Z" fill="white"/>
<path d="M97.8815 10.7227L96.6282 15.298L96.092 15.1511L94.5828 10.8759L94.5382 10.8636L93.5541 14.456L93.0001 14.3042L94.2534 9.72888L94.7896 9.87575L96.3052 14.1624L96.3499 14.1747L97.3364 10.5734L97.8815 10.7227Z" fill="white"/>
<path d="M102.97 13.087L103.168 12.6178L106.444 14.0068L106.245 14.476L104.872 13.8936L103.219 17.7919L102.69 17.5676L104.343 13.6694L102.97 13.087Z" fill="white"/>
<path d="M121.503 21.5333L116.668 27.6559L116.304 27.3688L121.139 21.2462L121.503 21.5333Z" fill="white"/>
<path d="M128.711 37.7473L132.53 34.9334L133.514 36.2686C133.71 36.5346 133.826 36.7879 133.861 37.0285C133.897 37.2682 133.87 37.4871 133.778 37.6852C133.687 37.8824 133.549 38.0497 133.362 38.1871C133.198 38.3081 133.041 38.3787 132.891 38.399C132.742 38.4206 132.602 38.4071 132.47 38.3584C132.339 38.3109 132.218 38.2435 132.108 38.1561L132.071 38.1836C132.149 38.3059 132.195 38.4537 132.207 38.6267C132.22 38.7998 132.186 38.9774 132.105 39.1596C132.024 39.3417 131.883 39.507 131.682 39.6554C131.491 39.7964 131.286 39.8798 131.069 39.9054C130.852 39.9311 130.63 39.883 130.402 39.7612C130.174 39.6395 129.949 39.4282 129.728 39.1273L128.711 37.7473ZM129.462 37.9075L130.138 38.825C130.361 39.1271 130.577 39.2985 130.787 39.3392C131 39.3803 131.19 39.3389 131.358 39.2153C131.487 39.12 131.582 38.9991 131.643 38.8526C131.705 38.7052 131.724 38.5463 131.7 38.3759C131.678 38.2046 131.605 38.0357 131.482 37.8691L130.79 36.9292L129.462 37.9075ZM131.193 36.6325L131.825 37.4903C131.927 37.6295 132.047 37.7349 132.184 37.8065C132.322 37.8793 132.465 37.9121 132.613 37.9047C132.762 37.8985 132.904 37.846 133.038 37.747C133.206 37.6234 133.305 37.4601 133.336 37.2571C133.368 37.0532 133.29 36.8245 133.104 36.5709L132.461 35.6981L131.193 36.6325Z" fill="white"/>
<path d="M133.394 44.7654L137.554 42.4855L138.93 44.9962L138.483 45.2411L137.383 43.2342L135.977 44.0045L137.006 45.8815L136.559 46.1264L135.531 44.2494L134.117 45.0242L135.234 47.0637L134.788 47.3086L133.394 44.7654Z" fill="white"/>
<path d="M137.283 52.7498L141.71 51.0448L142.286 52.5406C142.42 52.8879 142.466 53.1959 142.426 53.4647C142.388 53.7343 142.283 53.9633 142.112 54.1515C141.941 54.3397 141.726 54.4841 141.465 54.5845C141.204 54.685 140.946 54.723 140.692 54.6985C140.438 54.6754 140.205 54.5781 139.994 54.4064C139.783 54.2342 139.612 53.9759 139.479 53.6315L139.066 52.5594L139.542 52.3762L139.948 53.4311C140.04 53.6688 140.154 53.844 140.292 53.9564C140.43 54.0689 140.581 54.1306 140.746 54.1417C140.912 54.1535 141.084 54.1254 141.262 54.0571C141.439 53.9888 141.585 53.8946 141.699 53.7745C141.814 53.6558 141.883 53.5085 141.906 53.3324C141.931 53.1558 141.897 52.9471 141.804 52.7065L141.441 51.764L137.49 53.2859L137.283 52.7498Z" fill="white"/>
<path d="M139.98 60.9343L144.595 59.8346L144.966 61.3938C145.052 61.7543 145.061 62.0649 144.993 62.3256C144.927 62.5859 144.8 62.7971 144.613 62.9591C144.426 63.1211 144.197 63.2345 143.925 63.2993C143.653 63.3641 143.399 63.366 143.162 63.3049C142.925 63.2439 142.719 63.1128 142.545 62.9116C142.371 62.71 142.242 62.4305 142.157 62.073L141.856 60.8112L142.361 60.6909L142.657 61.9347C142.716 62.181 142.799 62.3707 142.907 62.5037C143.015 62.6383 143.143 62.7236 143.292 62.7597C143.442 62.7969 143.609 62.7935 143.794 62.7495C143.979 62.7055 144.132 62.6324 144.254 62.5304C144.376 62.4284 144.456 62.2925 144.495 62.1229C144.535 61.9529 144.526 61.7433 144.466 61.4939L144.232 60.5115L140.113 61.4931L139.98 60.9343ZM142.571 62.6124L140.769 64.242L140.614 63.5931L142.421 61.9815L142.571 62.6124Z" fill="white"/>
<path d="M144.288 72.7696C143.79 72.8197 143.351 72.7731 142.97 72.6298C142.589 72.4865 142.285 72.2681 142.057 71.9744C141.829 71.6808 141.694 71.3327 141.654 70.9301C141.613 70.5275 141.675 70.1597 141.841 69.8264C142.006 69.4932 142.261 69.2185 142.605 69.0022C142.95 68.786 143.371 68.6528 143.869 68.6027C144.366 68.5526 144.806 68.5993 145.186 68.7425C145.567 68.8858 145.872 69.1043 146.1 69.398C146.328 69.6916 146.462 70.0397 146.503 70.4423C146.543 70.8448 146.481 71.2127 146.316 71.5459C146.151 71.8792 145.896 72.1539 145.551 72.3701C145.207 72.5864 144.786 72.7196 144.288 72.7696ZM144.232 72.2165C144.641 72.1754 144.979 72.0723 145.246 71.9073C145.514 71.7438 145.708 71.5388 145.829 71.2922C145.951 71.0472 145.997 70.7818 145.968 70.4961C145.939 70.2103 145.841 69.9586 145.673 69.7412C145.506 69.5252 145.274 69.363 144.979 69.2546C144.685 69.1476 144.333 69.1147 143.924 69.1559C143.516 69.197 143.177 69.2993 142.91 69.4628C142.642 69.6278 142.448 69.8328 142.327 70.0778C142.206 70.3244 142.16 70.5905 142.188 70.8763C142.217 71.1621 142.315 71.413 142.483 71.6289C142.651 71.8464 142.882 72.0086 143.177 72.1155C143.472 72.224 143.823 72.2576 144.232 72.2165Z" fill="white"/>
<path d="M142.014 77.8469L146.756 78.0054L146.66 80.8483L146.151 80.8312L146.227 78.5625L144.625 78.5089L144.556 80.5647L144.047 80.5477L144.116 78.4919L141.995 78.421L142.014 77.8469Z" fill="white"/>
<path d="M141.334 86.4182L146.012 87.2072L145.536 90.0303L145.033 89.9456L145.414 87.6889L143.834 87.4223L143.478 89.5328L142.975 89.448L143.331 87.3375L141.741 87.0694L141.355 89.3626L140.852 89.2778L141.334 86.4182Z" fill="white"/>
<path d="M142.072 98.6174C142.304 98.6604 142.511 98.6067 142.694 98.4564C142.876 98.306 143.01 98.0937 143.095 97.8193C143.157 97.6188 143.179 97.4332 143.161 97.2626C143.142 97.0935 143.089 96.9493 143.002 96.83C142.914 96.7122 142.798 96.6309 142.653 96.586C142.532 96.5485 142.419 96.545 142.314 96.5756C142.211 96.608 142.116 96.661 142.03 96.7346C141.945 96.8087 141.869 96.8902 141.801 96.979C141.735 97.0683 141.677 97.1516 141.629 97.2288L141.363 97.6505C141.295 97.7589 141.211 97.8769 141.112 98.0045C141.012 98.1336 140.894 98.2499 140.759 98.3533C140.624 98.4587 140.471 98.5323 140.298 98.574C140.125 98.6157 139.932 98.6037 139.719 98.5378C139.475 98.4618 139.273 98.329 139.115 98.1394C138.957 97.9513 138.858 97.7167 138.817 97.4357C138.776 97.1562 138.81 96.8424 138.918 96.4944C139.018 96.1699 139.158 95.9052 139.336 95.7002C139.514 95.4967 139.718 95.3561 139.947 95.2786C140.176 95.2025 140.417 95.194 140.67 95.2531L140.495 95.8195C140.319 95.7812 140.16 95.7948 140.017 95.8603C139.874 95.9278 139.752 96.0304 139.649 96.1684C139.548 96.3083 139.469 96.4682 139.413 96.6481C139.348 96.8575 139.324 97.0561 139.34 97.2438C139.358 97.432 139.413 97.5937 139.505 97.729C139.598 97.8648 139.728 97.9583 139.893 98.0096C140.043 98.0562 140.179 98.0522 140.299 97.9974C140.42 97.9426 140.531 97.8558 140.632 97.7369C140.734 97.618 140.832 97.4858 140.925 97.3403L141.257 96.8322C141.469 96.5098 141.701 96.2746 141.954 96.1267C142.207 95.9787 142.486 95.9521 142.791 96.0468C143.045 96.1255 143.245 96.2627 143.391 96.4585C143.538 96.6561 143.628 96.8877 143.661 97.1532C143.694 97.4207 143.666 97.6989 143.576 97.988C143.486 98.2801 143.353 98.5234 143.178 98.718C143.004 98.9132 142.807 99.0492 142.586 99.1261C142.364 99.2045 142.138 99.2119 141.907 99.1484L142.072 98.6174Z" fill="white"/>
<path d="M138.617 107.047C138.841 107.12 139.054 107.095 139.255 106.97C139.456 106.845 139.617 106.653 139.738 106.392C139.826 106.202 139.873 106.021 139.877 105.849C139.881 105.679 139.848 105.529 139.777 105.399C139.706 105.271 139.601 105.175 139.464 105.111C139.349 105.058 139.238 105.039 139.13 105.055C139.022 105.074 138.921 105.114 138.826 105.175C138.733 105.237 138.646 105.308 138.567 105.387C138.489 105.467 138.421 105.541 138.363 105.612L138.043 105.994C137.962 106.092 137.863 106.198 137.748 106.311C137.631 106.426 137.499 106.526 137.351 106.61C137.204 106.697 137.041 106.749 136.864 106.767C136.687 106.786 136.498 106.748 136.296 106.654C136.064 106.546 135.882 106.388 135.751 106.179C135.619 105.971 135.552 105.726 135.549 105.442C135.546 105.159 135.621 104.853 135.774 104.522C135.917 104.214 136.091 103.97 136.295 103.791C136.498 103.613 136.719 103.501 136.956 103.455C137.193 103.41 137.433 103.433 137.677 103.526L137.427 104.064C137.258 104.002 137.098 103.994 136.948 104.04C136.798 104.088 136.663 104.174 136.543 104.297C136.423 104.422 136.324 104.57 136.245 104.741C136.152 104.94 136.102 105.133 136.093 105.321C136.085 105.51 136.118 105.678 136.191 105.824C136.266 105.971 136.382 106.081 136.539 106.154C136.682 106.22 136.816 106.234 136.943 106.196C137.07 106.158 137.191 106.087 137.308 105.982C137.424 105.878 137.539 105.76 137.651 105.628L138.048 105.169C138.301 104.878 138.562 104.675 138.832 104.563C139.103 104.45 139.383 104.46 139.673 104.595C139.914 104.707 140.094 104.869 140.212 105.083C140.332 105.298 140.39 105.54 140.387 105.807C140.384 106.077 140.319 106.349 140.192 106.624C140.063 106.901 139.899 107.124 139.7 107.294C139.502 107.464 139.288 107.573 139.058 107.619C138.828 107.668 138.603 107.645 138.383 107.551L138.617 107.047Z" fill="white"/>
<path d="M135.5 114.901L131.502 112.349L131.811 111.864L135.809 114.417L135.5 114.901Z" fill="white"/>
<path d="M126.956 122.157C126.574 121.834 126.302 121.486 126.14 121.112C125.979 120.739 125.924 120.368 125.977 120C126.029 119.632 126.186 119.293 126.447 118.985C126.708 118.676 127.016 118.465 127.37 118.352C127.725 118.239 128.099 118.231 128.494 118.328C128.889 118.426 129.278 118.636 129.66 118.959C130.042 119.282 130.314 119.63 130.476 120.003C130.637 120.376 130.692 120.747 130.639 121.115C130.587 121.483 130.43 121.822 130.169 122.131C129.908 122.44 129.6 122.651 129.246 122.764C128.891 122.877 128.517 122.885 128.122 122.787C127.727 122.69 127.338 122.48 126.956 122.157ZM127.315 121.732C127.629 121.998 127.938 122.169 128.242 122.246C128.546 122.325 128.828 122.322 129.09 122.238C129.35 122.155 129.573 122.003 129.758 121.784C129.944 121.565 130.057 121.319 130.096 121.047C130.135 120.777 130.091 120.498 129.964 120.21C129.836 119.924 129.615 119.648 129.301 119.383C128.987 119.118 128.679 118.946 128.375 118.867C128.071 118.79 127.788 118.793 127.528 118.876C127.266 118.96 127.043 119.112 126.858 119.331C126.672 119.551 126.56 119.796 126.521 120.066C126.482 120.338 126.526 120.617 126.654 120.903C126.781 121.191 127.001 121.467 127.315 121.732Z" fill="white"/>
<path d="M122.247 129.978L119.065 126.459L119.477 126.086L123.893 127.115L123.927 127.084L121.429 124.321L121.855 123.936L125.037 127.454L124.625 127.827L120.196 126.798L120.161 126.829L122.666 129.598L122.247 129.978Z" fill="white"/>
<path d="M114.838 129.696L115.334 129.356L116.583 134.252L116.094 134.588L111.973 131.663L112.47 131.322L115.898 133.812L115.929 133.791L114.838 129.696ZM115.703 131.35L113.702 132.724L113.413 132.304L115.415 130.93L115.703 131.35Z" fill="white"/>
<path d="M107.327 134.298L109.467 138.532L108.954 138.792L107.044 135.012L105.076 136.007L104.846 135.552L107.327 134.298Z" fill="white"/>
<path d="M91.2822 146.543L89.7283 138.898L90.1823 138.806L91.7362 146.451L91.2822 146.543Z" fill="white"/>
</svg>
